<svg width="150" height="39" viewBox="0 0 150 39" fill="none" xmlns="http://www.w3.org/2000/svg">
<g clip-path="url(#clip0)">
<path d="M42.2684 15.0077C41.868 14.6091 41.3877 14.2941 40.857 14.0822C40.3264 13.8702 39.7565 13.7657 39.1826 13.775H28.1859V9.83577C28.1783 9.43878 28.2525 9.0443 28.404 8.67538C28.5555 8.30647 28.7814 7.97051 29.0685 7.68716C29.3555 7.4038 29.6979 7.17872 30.0758 7.02507C30.4536 6.87143 30.8593 6.79229 31.269 6.79229C31.6788 6.79229 32.0844 6.87143 32.4623 7.02507C32.8401 7.17872 33.1825 7.4038 33.4696 7.68716C33.7566 7.97051 33.9825 8.30647 34.134 8.67538C34.2856 9.0443 34.3597 9.43878 34.3521 9.83577V11.9477H37.2916V9.83577C37.3021 9.06287 37.1542 8.29563 36.8563 7.57859C36.5583 6.86155 36.1164 6.20899 35.5561 5.6588C34.9958 5.10862 34.3283 4.67176 33.5924 4.37359C32.8564 4.07542 32.0667 3.92188 31.269 3.92188C30.4713 3.92188 29.6816 4.07542 28.9457 4.37359C28.2097 4.67176 27.5422 5.10862 26.9819 5.6588C26.4216 6.20899 25.9797 6.86155 25.6818 7.57859C25.3839 8.29563 25.2359 9.06287 25.2465 9.83577V16.6604H39.1826C39.3673 16.658 39.5506 16.691 39.722 16.7577C39.8934 16.8243 40.0495 16.9232 40.1812 17.0487C40.3155 17.1694 40.4221 17.3163 40.4938 17.4797C40.5656 17.643 40.601 17.8192 40.5978 17.9968V29.7817C40.5958 30.1448 40.4461 30.4925 40.1811 30.7492C39.9162 31.006 39.5574 31.1511 39.1826 31.153H23.3554C22.9809 31.1506 22.6224 31.0053 22.3575 30.7487C22.0927 30.492 21.9428 30.1446 21.9403 29.7817V17.9968C21.9364 17.8185 21.9715 17.6416 22.0433 17.4774C22.1151 17.3133 22.222 17.1658 22.3569 17.0446C22.4886 16.9191 22.6446 16.8202 22.816 16.7535C22.9874 16.6869 23.1707 16.6538 23.3554 16.6563V16.6563V13.7771C22.7815 13.7677 22.2117 13.8722 21.681 14.0842C21.1503 14.2962 20.67 14.6111 20.2697 15.0097C19.8584 15.3975 19.5334 15.8627 19.3146 16.3768C19.0959 16.8908 18.988 17.4428 18.9976 17.9988V29.7817C18.9874 30.3377 19.095 30.8899 19.3138 31.404C19.5326 31.9182 19.8579 32.3834 20.2697 32.7708C20.6697 33.1698 21.1499 33.4851 21.6806 33.6971C22.2114 33.9092 22.7814 34.0134 23.3554 34.0034H39.1826C39.7554 34.0057 40.3229 33.8981 40.8525 33.6867C41.3821 33.4754 41.8633 33.1645 42.2682 32.772C42.6732 32.3795 42.9939 31.9132 43.2119 31.3999C43.4299 30.8867 43.5408 30.3367 43.5383 29.7817V17.9968C43.5482 17.4409 43.4407 16.889 43.2223 16.375C43.0039 15.8609 42.6793 15.3956 42.2684 15.0077V15.0077Z" fill="white"/>
<path d="M33.1623 28.3623L32.1447 26.0255C32.4276 25.8773 32.6646 25.6585 32.8308 25.3918C32.9971 25.125 33.0866 24.8199 33.0902 24.5083C33.0787 24.0475 32.8818 23.6093 32.5414 23.2874C32.201 22.9654 31.7442 22.7852 31.2685 22.7852C30.7929 22.7852 30.3361 22.9654 29.9957 23.2874C29.6553 23.6093 29.4584 24.0475 29.4469 24.5083C29.4504 24.8199 29.54 25.125 29.7063 25.3918C29.8725 25.6585 30.1095 25.8773 30.3924 26.0255L29.3759 28.3623H33.1623Z" fill="white"/>
</g>
<path d="M60.218 18.7087H63.1178C63.0303 15.517 60.2083 13.201 56.1603 13.201C52.1609 13.201 49.0956 15.4878 49.0956 18.9228C49.0956 21.6961 51.0807 23.3211 54.2822 24.1872L56.6371 24.8294C58.7681 25.3938 60.4127 26.0944 60.4127 27.8655C60.4127 29.8116 58.5541 31.0961 55.9948 31.0961C53.6789 31.0961 51.7522 30.0646 51.577 27.8947H48.5604C48.755 31.5048 51.5478 33.7332 56.0143 33.7332C60.6949 33.7332 63.3903 31.2713 63.3903 27.8947C63.3903 24.304 60.1888 22.9124 57.6588 22.2897L55.7126 21.7837C54.1557 21.3847 52.083 20.6549 52.0927 18.7476C52.0927 17.0544 53.64 15.7992 56.0921 15.7992C58.3789 15.7992 60.004 16.8696 60.218 18.7087ZM71.0996 33.7332C73.5713 33.7332 74.9628 32.4779 75.5174 31.3589H75.6342V33.4023H78.4756V23.4768C78.4756 19.1271 75.0504 18.2611 72.676 18.2611C69.9708 18.2611 67.4797 19.3509 66.5066 22.0756L69.241 22.6984C69.6692 21.6377 70.759 20.616 72.7149 20.616C74.593 20.616 75.5564 21.5988 75.5564 23.2919V23.3601C75.5564 24.4207 74.4665 24.4013 71.7808 24.7127C68.9491 25.0435 66.0493 25.7831 66.0493 29.1791C66.0493 32.1179 68.2582 33.7332 71.0996 33.7332ZM71.7321 31.3978C70.0876 31.3978 68.9004 30.6582 68.9004 29.2181C68.9004 27.6611 70.2822 27.1065 71.9657 26.8826C72.9096 26.7561 75.1477 26.5031 75.5661 26.0847V28.0114C75.5661 29.7825 74.1551 31.3978 71.7321 31.3978ZM89.4642 18.4557H86.2433V17.1128C86.2433 15.7894 86.7882 15.0693 88.2089 15.0693C88.8123 15.0693 89.2404 15.2056 89.5129 15.2932L90.1941 12.9383C89.7854 12.7826 88.9388 12.5393 87.7613 12.5393C85.3967 12.5393 83.324 13.9211 83.324 16.7236V18.4557H81.0178V20.7911H83.324V33.4023H86.2433V20.7911H89.4642V18.4557ZM92.4662 33.4023H95.3758V18.4557H92.4662V33.4023ZM93.9356 16.1495C94.9379 16.1495 95.7747 15.371 95.7747 14.4174C95.7747 13.4637 94.9379 12.6755 93.9356 12.6755C92.9236 12.6755 92.0964 13.4637 92.0964 14.4174C92.0964 15.371 92.9236 16.1495 93.9356 16.1495ZM105.732 33.704C108.992 33.704 111.298 32.0984 111.96 29.6657L109.206 29.1694C108.68 30.5804 107.415 31.3005 105.761 31.3005C103.27 31.3005 101.596 29.6851 101.518 26.8048H112.145V25.7733C112.145 20.3727 108.914 18.2611 105.528 18.2611C101.363 18.2611 98.6186 21.4333 98.6186 26.0263C98.6186 30.668 101.324 33.704 105.732 33.704ZM101.528 24.6251C101.645 22.5037 103.182 20.6646 105.547 20.6646C107.805 20.6646 109.284 22.3383 109.293 24.6251H101.528ZM118.282 24.5278C118.282 22.1437 119.742 20.7814 121.766 20.7814C123.741 20.7814 124.938 22.0756 124.938 24.2456V33.4023H127.848V23.8953C127.848 20.1975 125.814 18.2611 122.758 18.2611C120.511 18.2611 119.041 19.3023 118.35 20.8884H118.165V18.4557H115.373V33.4023H118.282V24.5278ZM138.727 18.4557H135.662V14.8747H132.752V18.4557H130.563V20.7911H132.752V29.617C132.742 32.3319 134.815 33.6456 137.112 33.597C138.036 33.5872 138.659 33.4121 138.999 33.2856L138.474 30.882C138.279 30.921 137.919 31.0085 137.452 31.0085C136.508 31.0085 135.662 30.6972 135.662 29.0137V20.7911H138.727V18.4557Z" fill="#FCFCFC"/>
<defs>
<clipPath id="clip0">
<rect width="24.5385" height="30" fill="white" transform="translate(19 4)"/>
</clipPath>
</defs>
</svg>
