<svg width="1800" height="800" viewBox="0 0 1800 800" fill="none" xmlns="http://www.w3.org/2000/svg">
<rect width="1800" height="800" fill="black"/>
<path d="M438 462H518" stroke="white" stroke-width="2" stroke-dasharray="6 2"/>
<path d="M495 438L519 462L495 486" stroke="white" stroke-width="2"/>
<path d="M606 319V399" stroke="white" stroke-width="2"/>
<path d="M594 330L606 318L618 330" stroke="white" stroke-width="2"/>
<path d="M618 388L606 400L594 388" stroke="white" stroke-width="2"/>
<path d="M668 459H807" stroke="white" stroke-width="2"/>
<path d="M796 447L808 459L796 471" stroke="white" stroke-width="2"/>
<path d="M1082 455H1131" stroke="white" stroke-width="2"/>
<path d="M1120 443L1132 455L1120 467" stroke="white" stroke-width="2"/>
<path d="M1356 456H1405" stroke="white" stroke-width="2"/>
<path d="M1394 444L1406 456L1394 468" stroke="white" stroke-width="2"/>
<path d="M796 275H847" stroke="white" stroke-width="2"/>
<path d="M836 263L848 275L836 287" stroke="white" stroke-width="2"/>
<rect x="1133" y="408" width="240" height="107" fill="white"/>
<path d="M1184.49 454.922C1184.01 455.612 1183.34 456.13 1182.47 456.475C1181.61 456.814 1180.61 456.983 1179.46 456.983C1178.31 456.983 1177.28 456.713 1176.38 456.172C1175.48 455.625 1174.78 454.851 1174.29 453.848C1173.8 452.845 1173.55 451.683 1173.54 450.362V449.121C1173.54 446.98 1174.04 445.319 1175.03 444.141C1176.03 442.963 1177.44 442.373 1179.25 442.373C1180.73 442.373 1181.93 442.754 1182.83 443.516C1183.74 444.271 1184.29 445.345 1184.49 446.739H1182.62C1182.27 444.857 1181.15 443.916 1179.26 443.916C1178 443.916 1177.05 444.359 1176.4 445.245C1175.75 446.123 1175.43 447.399 1175.42 449.073V450.235C1175.42 451.83 1175.79 453.099 1176.52 454.043C1177.24 454.981 1178.23 455.45 1179.47 455.45C1180.18 455.45 1180.79 455.371 1181.32 455.215C1181.85 455.059 1182.28 454.795 1182.63 454.424V451.231H1179.34V449.707H1184.49V454.922ZM1193.87 455.743C1193.17 456.569 1192.13 456.983 1190.77 456.983C1189.65 456.983 1188.79 456.657 1188.2 456.006C1187.61 455.349 1187.31 454.379 1187.31 453.096V446.221H1189.11V453.047C1189.11 454.649 1189.76 455.45 1191.07 455.45C1192.45 455.45 1193.36 454.935 1193.82 453.907V446.221H1195.63V456.787H1193.91L1193.87 455.743ZM1204.9 456.787C1204.8 456.579 1204.72 456.208 1204.65 455.674C1203.81 456.547 1202.81 456.983 1201.64 456.983C1200.6 456.983 1199.74 456.69 1199.07 456.104C1198.41 455.511 1198.08 454.763 1198.08 453.858C1198.08 452.758 1198.49 451.905 1199.33 451.299C1200.17 450.687 1201.35 450.381 1202.86 450.381H1204.62V449.551C1204.62 448.92 1204.43 448.418 1204.05 448.047C1203.68 447.67 1203.12 447.481 1202.38 447.481C1201.74 447.481 1201.2 447.644 1200.76 447.969C1200.33 448.295 1200.11 448.689 1200.11 449.151H1198.29C1198.29 448.623 1198.48 448.116 1198.85 447.627C1199.23 447.133 1199.74 446.742 1200.37 446.455C1201.02 446.169 1201.72 446.026 1202.49 446.026C1203.71 446.026 1204.66 446.332 1205.35 446.944C1206.04 447.549 1206.4 448.386 1206.43 449.453V454.317C1206.43 455.287 1206.55 456.058 1206.8 456.631V456.787H1204.9ZM1201.91 455.411C1202.47 455.411 1203.01 455.264 1203.52 454.971C1204.03 454.678 1204.39 454.297 1204.62 453.828V451.661H1203.21C1200.99 451.661 1199.88 452.308 1199.88 453.604C1199.88 454.17 1200.07 454.613 1200.45 454.932C1200.83 455.251 1201.31 455.411 1201.91 455.411ZM1214.37 447.842C1214.09 447.797 1213.8 447.774 1213.48 447.774C1212.29 447.774 1211.49 448.278 1211.07 449.287V456.787H1209.26V446.221H1211.02L1211.05 447.442C1211.64 446.498 1212.48 446.026 1213.57 446.026C1213.92 446.026 1214.18 446.071 1214.37 446.162V447.842ZM1215.4 451.416C1215.4 449.795 1215.79 448.493 1216.55 447.51C1217.32 446.521 1218.33 446.026 1219.57 446.026C1220.81 446.026 1221.79 446.449 1222.51 447.295V441.787H1224.32V456.787H1222.66L1222.57 455.655C1221.85 456.54 1220.84 456.983 1219.55 456.983C1218.33 456.983 1217.33 456.481 1216.55 455.479C1215.79 454.476 1215.4 453.168 1215.4 451.553V451.416ZM1217.21 451.621C1217.21 452.819 1217.46 453.757 1217.95 454.434C1218.45 455.111 1219.13 455.45 1220 455.45C1221.15 455.45 1221.98 454.935 1222.51 453.907V449.053C1221.97 448.057 1221.14 447.559 1220.02 447.559C1219.14 447.559 1218.45 447.901 1217.95 448.584C1217.46 449.268 1217.21 450.28 1217.21 451.621ZM1229.09 456.787H1227.29V446.221H1229.09V456.787ZM1227.14 443.418C1227.14 443.125 1227.23 442.878 1227.4 442.676C1227.59 442.474 1227.85 442.373 1228.21 442.373C1228.56 442.373 1228.82 442.474 1229.01 442.676C1229.19 442.878 1229.28 443.125 1229.28 443.418C1229.28 443.711 1229.19 443.955 1229.01 444.151C1228.82 444.346 1228.56 444.444 1228.21 444.444C1227.85 444.444 1227.59 444.346 1227.4 444.151C1227.23 443.955 1227.14 443.711 1227.14 443.418ZM1238.52 456.787C1238.41 456.579 1238.33 456.208 1238.26 455.674C1237.42 456.547 1236.42 456.983 1235.26 456.983C1234.21 456.983 1233.36 456.69 1232.69 456.104C1232.02 455.511 1231.69 454.763 1231.69 453.858C1231.69 452.758 1232.11 451.905 1232.94 451.299C1233.78 450.687 1234.96 450.381 1236.48 450.381H1238.23V449.551C1238.23 448.92 1238.05 448.418 1237.67 448.047C1237.29 447.67 1236.73 447.481 1236 447.481C1235.35 447.481 1234.81 447.644 1234.38 447.969C1233.94 448.295 1233.72 448.689 1233.72 449.151H1231.91C1231.91 448.623 1232.09 448.116 1232.46 447.627C1232.84 447.133 1233.35 446.742 1233.99 446.455C1234.63 446.169 1235.34 446.026 1236.11 446.026C1237.32 446.026 1238.28 446.332 1238.97 446.944C1239.66 447.549 1240.01 448.386 1240.04 449.453V454.317C1240.04 455.287 1240.16 456.058 1240.41 456.631V456.787H1238.52ZM1235.52 455.411C1236.09 455.411 1236.62 455.264 1237.13 454.971C1237.64 454.678 1238.01 454.297 1238.23 453.828V451.661H1236.82C1234.6 451.661 1233.5 452.308 1233.5 453.604C1233.5 454.17 1233.69 454.613 1234.06 454.932C1234.44 455.251 1234.93 455.411 1235.52 455.411ZM1244.58 446.221L1244.64 447.549C1245.45 446.534 1246.5 446.026 1247.8 446.026C1250.04 446.026 1251.16 447.286 1251.18 449.805V456.787H1249.38V449.795C1249.37 449.034 1249.19 448.47 1248.85 448.106C1248.51 447.741 1247.98 447.559 1247.26 447.559C1246.67 447.559 1246.16 447.715 1245.71 448.028C1245.27 448.34 1244.93 448.75 1244.68 449.258V456.787H1242.87V446.221H1244.58ZM1260.06 453.985C1260.06 453.496 1259.88 453.119 1259.5 452.852C1259.14 452.578 1258.5 452.344 1257.58 452.149C1256.67 451.953 1255.94 451.719 1255.4 451.446C1254.87 451.172 1254.47 450.847 1254.21 450.469C1253.96 450.092 1253.83 449.642 1253.83 449.121C1253.83 448.256 1254.19 447.523 1254.92 446.924C1255.66 446.325 1256.6 446.026 1257.74 446.026C1258.93 446.026 1259.9 446.335 1260.65 446.953C1261.4 447.572 1261.77 448.363 1261.77 449.327H1259.95C1259.95 448.832 1259.74 448.405 1259.32 448.047C1258.9 447.689 1258.37 447.51 1257.74 447.51C1257.08 447.51 1256.56 447.653 1256.19 447.94C1255.82 448.226 1255.64 448.601 1255.64 449.063C1255.64 449.499 1255.81 449.828 1256.15 450.049C1256.5 450.271 1257.12 450.482 1258.02 450.684C1258.92 450.886 1259.66 451.127 1260.22 451.407C1260.78 451.687 1261.19 452.025 1261.46 452.422C1261.73 452.813 1261.87 453.291 1261.87 453.858C1261.87 454.802 1261.49 455.56 1260.73 456.133C1259.98 456.7 1259 456.983 1257.79 456.983C1256.95 456.983 1256.2 456.833 1255.55 456.534C1254.9 456.234 1254.39 455.817 1254.02 455.284C1253.65 454.743 1253.47 454.161 1253.47 453.536H1255.28C1255.31 454.141 1255.55 454.623 1256 454.981C1256.45 455.332 1257.05 455.508 1257.79 455.508C1258.48 455.508 1259.03 455.371 1259.44 455.098C1259.85 454.818 1260.06 454.447 1260.06 453.985ZM1274.29 447.842C1274.02 447.797 1273.72 447.774 1273.4 447.774C1272.22 447.774 1271.41 448.278 1270.99 449.287V456.787H1269.18V446.221H1270.94L1270.97 447.442C1271.56 446.498 1272.4 446.026 1273.49 446.026C1273.84 446.026 1274.11 446.071 1274.29 446.162V447.842ZM1280.15 456.983C1278.72 456.983 1277.55 456.514 1276.65 455.577C1275.75 454.633 1275.3 453.373 1275.3 451.797V451.465C1275.3 450.417 1275.5 449.483 1275.9 448.662C1276.3 447.836 1276.86 447.191 1277.58 446.729C1278.3 446.26 1279.08 446.026 1279.92 446.026C1281.3 446.026 1282.37 446.478 1283.13 447.383C1283.89 448.288 1284.27 449.584 1284.27 451.27V452.022H1277.11C1277.14 453.064 1277.44 453.907 1278.02 454.551C1278.61 455.189 1279.35 455.508 1280.25 455.508C1280.88 455.508 1281.42 455.378 1281.87 455.118C1282.31 454.857 1282.7 454.512 1283.03 454.082L1284.13 454.942C1283.25 456.302 1281.92 456.983 1280.15 456.983ZM1279.92 447.51C1279.19 447.51 1278.58 447.777 1278.09 448.311C1277.59 448.838 1277.29 449.58 1277.17 450.537H1282.46V450.401C1282.41 449.483 1282.16 448.773 1281.72 448.272C1281.28 447.764 1280.68 447.51 1279.92 447.51ZM1290.61 455.508C1291.25 455.508 1291.82 455.313 1292.3 454.922C1292.78 454.532 1293.05 454.043 1293.1 453.457H1294.81C1294.77 454.063 1294.57 454.639 1294.18 455.186C1293.8 455.733 1293.28 456.169 1292.64 456.495C1292 456.82 1291.32 456.983 1290.61 456.983C1289.17 456.983 1288.02 456.504 1287.17 455.547C1286.32 454.584 1285.9 453.269 1285.9 451.602V451.299C1285.9 450.271 1286.09 449.356 1286.47 448.555C1286.84 447.754 1287.38 447.133 1288.09 446.69C1288.8 446.247 1289.63 446.026 1290.6 446.026C1291.78 446.026 1292.77 446.381 1293.55 447.09C1294.33 447.8 1294.75 448.721 1294.81 449.854H1293.1C1293.05 449.17 1292.79 448.61 1292.32 448.174C1291.85 447.731 1291.28 447.51 1290.6 447.51C1289.68 447.51 1288.97 447.842 1288.46 448.506C1287.96 449.164 1287.71 450.118 1287.71 451.368V451.709C1287.71 452.927 1287.96 453.864 1288.46 454.522C1288.96 455.179 1289.68 455.508 1290.61 455.508ZM1296.36 451.407C1296.36 450.371 1296.56 449.44 1296.96 448.614C1297.38 447.787 1297.94 447.149 1298.66 446.7C1299.39 446.25 1300.22 446.026 1301.15 446.026C1302.59 446.026 1303.76 446.524 1304.64 447.52C1305.53 448.516 1305.98 449.841 1305.98 451.495V451.621C1305.98 452.65 1305.78 453.575 1305.38 454.395C1304.99 455.209 1304.43 455.843 1303.69 456.299C1302.96 456.755 1302.12 456.983 1301.17 456.983C1299.74 456.983 1298.58 456.485 1297.69 455.489C1296.8 454.493 1296.36 453.174 1296.36 451.534V451.407ZM1298.18 451.621C1298.18 452.793 1298.45 453.734 1298.99 454.444C1299.53 455.153 1300.26 455.508 1301.17 455.508C1302.09 455.508 1302.82 455.15 1303.36 454.434C1303.9 453.711 1304.17 452.702 1304.17 451.407C1304.17 450.248 1303.9 449.31 1303.34 448.594C1302.79 447.871 1302.07 447.51 1301.15 447.51C1300.26 447.51 1299.54 447.865 1299 448.575C1298.45 449.284 1298.18 450.3 1298.18 451.621ZM1311.57 454.336L1314.19 446.221H1316.04L1312.25 456.787H1310.87L1307.04 446.221H1308.89L1311.57 454.336ZM1322.02 456.983C1320.59 456.983 1319.43 456.514 1318.53 455.577C1317.63 454.633 1317.18 453.373 1317.18 451.797V451.465C1317.18 450.417 1317.38 449.483 1317.78 448.662C1318.18 447.836 1318.74 447.191 1319.46 446.729C1320.18 446.26 1320.96 446.026 1321.8 446.026C1323.17 446.026 1324.24 446.478 1325 447.383C1325.76 448.288 1326.14 449.584 1326.14 451.27V452.022H1318.99C1319.01 453.064 1319.32 453.907 1319.89 454.551C1320.48 455.189 1321.22 455.508 1322.12 455.508C1322.76 455.508 1323.3 455.378 1323.74 455.118C1324.18 454.857 1324.57 454.512 1324.9 454.082L1326.01 454.942C1325.12 456.302 1323.79 456.983 1322.02 456.983ZM1321.8 447.51C1321.07 447.51 1320.46 447.777 1319.96 448.311C1319.47 448.838 1319.16 449.58 1319.04 450.537H1324.34V450.401C1324.29 449.483 1324.04 448.773 1323.6 448.272C1323.15 447.764 1322.55 447.51 1321.8 447.51ZM1333.35 447.842C1333.08 447.797 1332.78 447.774 1332.46 447.774C1331.28 447.774 1330.47 448.278 1330.05 449.287V456.787H1328.24V446.221H1330L1330.03 447.442C1330.62 446.498 1331.46 446.026 1332.55 446.026C1332.9 446.026 1333.17 446.071 1333.35 446.162V447.842ZM1242.74 467.662V470.221H1244.71V471.618H1242.74V478.17C1242.74 478.593 1242.82 478.912 1243 479.127C1243.18 479.336 1243.48 479.44 1243.9 479.44C1244.11 479.44 1244.39 479.401 1244.76 479.323V480.787C1244.28 480.918 1243.82 480.983 1243.37 480.983C1242.56 480.983 1241.96 480.739 1241.54 480.25C1241.13 479.762 1240.93 479.069 1240.93 478.17V471.618H1239.01V470.221H1240.93V467.662H1242.74ZM1248.63 471.5C1249.44 470.517 1250.48 470.026 1251.76 470.026C1253.99 470.026 1255.12 471.286 1255.14 473.805V480.787H1253.33V473.795C1253.33 473.034 1253.15 472.47 1252.8 472.106C1252.47 471.741 1251.94 471.559 1251.21 471.559C1250.63 471.559 1250.11 471.715 1249.67 472.028C1249.23 472.34 1248.88 472.75 1248.63 473.258V480.787H1246.83V465.787H1248.63V471.5ZM1262.23 480.983C1260.8 480.983 1259.63 480.514 1258.73 479.577C1257.83 478.633 1257.38 477.373 1257.38 475.797V475.465C1257.38 474.417 1257.58 473.483 1257.98 472.662C1258.38 471.836 1258.94 471.191 1259.66 470.729C1260.38 470.26 1261.16 470.026 1262 470.026C1263.38 470.026 1264.45 470.478 1265.21 471.383C1265.97 472.288 1266.35 473.584 1266.35 475.27V476.022H1259.19C1259.22 477.064 1259.52 477.907 1260.1 478.551C1260.69 479.189 1261.43 479.508 1262.33 479.508C1262.96 479.508 1263.5 479.378 1263.95 479.118C1264.39 478.857 1264.78 478.512 1265.11 478.082L1266.21 478.942C1265.33 480.302 1264 480.983 1262.23 480.983ZM1262 471.51C1261.27 471.51 1260.66 471.777 1260.17 472.311C1259.67 472.838 1259.37 473.58 1259.25 474.537H1264.54V474.401C1264.49 473.483 1264.24 472.773 1263.8 472.272C1263.36 471.764 1262.76 471.51 1262 471.51Z" fill="black"/>
<rect x="479" y="236" width="316" height="78" stroke="white" stroke-width="2"/>
<path d="M534.81 265.037C534.616 266.691 534.004 267.97 532.973 268.872C531.949 269.767 530.584 270.215 528.88 270.215C527.032 270.215 525.55 269.552 524.433 268.228C523.323 266.903 522.768 265.13 522.768 262.91V261.406C522.768 259.952 523.025 258.674 523.541 257.571C524.064 256.468 524.801 255.623 525.754 255.036C526.706 254.442 527.809 254.145 529.062 254.145C530.724 254.145 532.056 254.61 533.059 255.541C534.061 256.465 534.645 257.747 534.81 259.387H532.736C532.557 258.141 532.167 257.238 531.565 256.68C530.971 256.121 530.137 255.842 529.062 255.842C527.745 255.842 526.71 256.329 525.958 257.303C525.213 258.277 524.841 259.662 524.841 261.46V262.975C524.841 264.672 525.195 266.022 525.904 267.024C526.613 268.027 527.605 268.528 528.88 268.528C530.026 268.528 530.903 268.271 531.512 267.755C532.128 267.232 532.536 266.326 532.736 265.037H534.81ZM542.941 260.16C542.641 260.11 542.315 260.085 541.964 260.085C540.66 260.085 539.776 260.64 539.311 261.75V270H537.323V258.377H539.257L539.289 259.72C539.941 258.681 540.865 258.162 542.061 258.162C542.447 258.162 542.741 258.212 542.941 258.312V260.16ZM549.387 270.215C547.811 270.215 546.529 269.699 545.541 268.668C544.553 267.63 544.059 266.244 544.059 264.511V264.146C544.059 262.993 544.277 261.965 544.714 261.062C545.158 260.153 545.774 259.444 546.562 258.936C547.356 258.42 548.216 258.162 549.14 258.162C550.651 258.162 551.825 258.66 552.663 259.655C553.501 260.651 553.92 262.076 553.92 263.931V264.758H546.046C546.075 265.904 546.408 266.831 547.045 267.54C547.689 268.242 548.506 268.593 549.494 268.593C550.196 268.593 550.79 268.45 551.277 268.163C551.764 267.877 552.19 267.497 552.556 267.024L553.77 267.97C552.796 269.466 551.335 270.215 549.387 270.215ZM549.14 259.795C548.338 259.795 547.664 260.089 547.12 260.676C546.576 261.256 546.239 262.072 546.11 263.125H551.933V262.975C551.875 261.965 551.603 261.184 551.116 260.633C550.629 260.074 549.97 259.795 549.14 259.795ZM563.405 270C563.291 269.771 563.198 269.363 563.126 268.775C562.202 269.735 561.099 270.215 559.817 270.215C558.672 270.215 557.73 269.893 556.992 269.248C556.262 268.596 555.896 267.773 555.896 266.777C555.896 265.567 556.355 264.629 557.271 263.963C558.195 263.29 559.492 262.953 561.16 262.953H563.094V262.04C563.094 261.345 562.886 260.794 562.471 260.386C562.055 259.97 561.443 259.763 560.634 259.763C559.925 259.763 559.33 259.942 558.851 260.3C558.371 260.658 558.131 261.091 558.131 261.6H556.133C556.133 261.02 556.337 260.461 556.745 259.924C557.16 259.38 557.719 258.95 558.421 258.635C559.13 258.32 559.907 258.162 560.752 258.162C562.091 258.162 563.14 258.499 563.899 259.172C564.659 259.838 565.052 260.758 565.081 261.933V267.282C565.081 268.349 565.217 269.198 565.489 269.828V270H563.405ZM560.107 268.485C560.73 268.485 561.321 268.324 561.88 268.002C562.438 267.68 562.843 267.261 563.094 266.745V264.36H561.536C559.101 264.36 557.884 265.073 557.884 266.498C557.884 267.121 558.091 267.608 558.507 267.959C558.922 268.31 559.456 268.485 560.107 268.485ZM570.893 255.562V258.377H573.062V259.913H570.893V267.121C570.893 267.587 570.989 267.938 571.183 268.174C571.376 268.403 571.705 268.518 572.171 268.518C572.4 268.518 572.715 268.475 573.116 268.389V270C572.593 270.143 572.085 270.215 571.591 270.215C570.703 270.215 570.033 269.946 569.582 269.409C569.131 268.872 568.905 268.109 568.905 267.121V259.913H566.789V258.377H568.905V255.562H570.893ZM580.217 270.215C578.641 270.215 577.359 269.699 576.371 268.668C575.383 267.63 574.889 266.244 574.889 264.511V264.146C574.889 262.993 575.107 261.965 575.544 261.062C575.988 260.153 576.604 259.444 577.392 258.936C578.187 258.42 579.046 258.162 579.97 258.162C581.481 258.162 582.655 258.66 583.493 259.655C584.331 260.651 584.75 262.076 584.75 263.931V264.758H576.876C576.905 265.904 577.238 266.831 577.875 267.54C578.52 268.242 579.336 268.593 580.324 268.593C581.026 268.593 581.62 268.45 582.107 268.163C582.594 267.877 583.021 267.497 583.386 267.024L584.6 267.97C583.626 269.466 582.165 270.215 580.217 270.215ZM579.97 259.795C579.168 259.795 578.494 260.089 577.95 260.676C577.406 261.256 577.069 262.072 576.94 263.125H582.763V262.975C582.705 261.965 582.433 261.184 581.946 260.633C581.459 260.074 580.8 259.795 579.97 259.795ZM599.692 270C599.578 269.771 599.485 269.363 599.413 268.775C598.489 269.735 597.386 270.215 596.104 270.215C594.959 270.215 594.017 269.893 593.279 269.248C592.549 268.596 592.184 267.773 592.184 266.777C592.184 265.567 592.642 264.629 593.559 263.963C594.482 263.29 595.779 262.953 597.447 262.953H599.381V262.04C599.381 261.345 599.173 260.794 598.758 260.386C598.342 259.97 597.73 259.763 596.921 259.763C596.212 259.763 595.618 259.942 595.138 260.3C594.658 260.658 594.418 261.091 594.418 261.6H592.42C592.42 261.02 592.624 260.461 593.032 259.924C593.448 259.38 594.006 258.95 594.708 258.635C595.417 258.32 596.194 258.162 597.039 258.162C598.378 258.162 599.427 258.499 600.187 259.172C600.946 259.838 601.34 260.758 601.368 261.933V267.282C601.368 268.349 601.504 269.198 601.776 269.828V270H599.692ZM596.395 268.485C597.018 268.485 597.608 268.324 598.167 268.002C598.726 267.68 599.13 267.261 599.381 266.745V264.36H597.823C595.388 264.36 594.171 265.073 594.171 266.498C594.171 267.121 594.379 267.608 594.794 267.959C595.209 268.31 595.743 268.485 596.395 268.485ZM614.603 268.593C615.312 268.593 615.931 268.378 616.461 267.948C616.991 267.519 617.285 266.981 617.342 266.337H619.222C619.186 267.003 618.957 267.637 618.534 268.238C618.112 268.84 617.546 269.32 616.837 269.678C616.135 270.036 615.39 270.215 614.603 270.215C613.02 270.215 611.759 269.688 610.821 268.636C609.89 267.576 609.425 266.129 609.425 264.296V263.963C609.425 262.831 609.632 261.825 610.048 260.944C610.463 260.063 611.058 259.38 611.831 258.893C612.612 258.406 613.532 258.162 614.592 258.162C615.895 258.162 616.977 258.552 617.836 259.333C618.702 260.114 619.164 261.127 619.222 262.373H617.342C617.285 261.621 616.998 261.005 616.482 260.525C615.974 260.038 615.344 259.795 614.592 259.795C613.582 259.795 612.798 260.16 612.239 260.891C611.688 261.614 611.412 262.663 611.412 264.038V264.414C611.412 265.753 611.688 266.785 612.239 267.508C612.791 268.231 613.578 268.593 614.603 268.593ZM623.615 270H621.628V253.5H623.615V270ZM633.981 270C633.867 269.771 633.774 269.363 633.702 268.775C632.778 269.735 631.675 270.215 630.394 270.215C629.248 270.215 628.306 269.893 627.568 269.248C626.838 268.596 626.473 267.773 626.473 266.777C626.473 265.567 626.931 264.629 627.848 263.963C628.771 263.29 630.068 262.953 631.736 262.953H633.67V262.04C633.67 261.345 633.462 260.794 633.047 260.386C632.632 259.97 632.019 259.763 631.21 259.763C630.501 259.763 629.907 259.942 629.427 260.3C628.947 260.658 628.707 261.091 628.707 261.6H626.709C626.709 261.02 626.913 260.461 627.321 259.924C627.737 259.38 628.295 258.95 628.997 258.635C629.706 258.32 630.483 258.162 631.328 258.162C632.667 258.162 633.716 258.499 634.476 259.172C635.235 259.838 635.629 260.758 635.657 261.933V267.282C635.657 268.349 635.793 269.198 636.065 269.828V270H633.981ZM630.684 268.485C631.307 268.485 631.897 268.324 632.456 268.002C633.015 267.68 633.419 267.261 633.67 266.745V264.36H632.112C629.677 264.36 628.46 265.073 628.46 266.498C628.46 267.121 628.668 267.608 629.083 267.959C629.498 268.31 630.032 268.485 630.684 268.485ZM640.932 270H638.944V258.377H640.932V270ZM638.783 255.294C638.783 254.972 638.88 254.7 639.073 254.478C639.274 254.256 639.567 254.145 639.954 254.145C640.341 254.145 640.634 254.256 640.835 254.478C641.035 254.7 641.136 254.972 641.136 255.294C641.136 255.616 641.035 255.885 640.835 256.1C640.634 256.314 640.341 256.422 639.954 256.422C639.567 256.422 639.274 256.314 639.073 256.1C638.88 255.885 638.783 255.616 638.783 255.294ZM645.991 258.377L646.045 259.666C646.897 258.663 648.047 258.162 649.493 258.162C651.119 258.162 652.225 258.785 652.812 260.031C653.199 259.473 653.701 259.021 654.316 258.678C654.939 258.334 655.674 258.162 656.519 258.162C659.068 258.162 660.364 259.512 660.407 262.212V270H658.42V262.33C658.42 261.499 658.23 260.88 657.851 260.472C657.471 260.056 656.834 259.849 655.938 259.849C655.201 259.849 654.589 260.071 654.102 260.515C653.615 260.951 653.332 261.542 653.253 262.287V270H651.255V262.384C651.255 260.694 650.428 259.849 648.773 259.849C647.47 259.849 646.578 260.404 646.099 261.514V270H644.111V258.377H645.991ZM668.346 264.081C668.346 262.942 668.568 261.918 669.012 261.009C669.463 260.099 670.086 259.397 670.881 258.903C671.683 258.409 672.596 258.162 673.62 258.162C675.203 258.162 676.481 258.71 677.455 259.806C678.436 260.901 678.927 262.359 678.927 264.178V264.317C678.927 265.449 678.708 266.466 678.271 267.368C677.842 268.263 677.222 268.962 676.413 269.463C675.611 269.964 674.687 270.215 673.642 270.215C672.066 270.215 670.788 269.667 669.807 268.571C668.833 267.476 668.346 266.025 668.346 264.221V264.081ZM670.344 264.317C670.344 265.606 670.641 266.641 671.235 267.422C671.837 268.202 672.639 268.593 673.642 268.593C674.651 268.593 675.453 268.199 676.048 267.411C676.642 266.616 676.939 265.506 676.939 264.081C676.939 262.806 676.635 261.775 676.026 260.987C675.425 260.192 674.623 259.795 673.62 259.795C672.639 259.795 671.848 260.185 671.246 260.966C670.645 261.746 670.344 262.864 670.344 264.317ZM683.299 258.377L683.363 259.838C684.251 258.721 685.411 258.162 686.844 258.162C689.3 258.162 690.539 259.548 690.561 262.319V270H688.573V262.309C688.566 261.471 688.373 260.851 687.993 260.45C687.621 260.049 687.037 259.849 686.242 259.849C685.598 259.849 685.032 260.021 684.545 260.364C684.058 260.708 683.678 261.159 683.406 261.718V270H681.419V258.377H683.299ZM703.935 263.028C702.166 262.52 700.877 261.897 700.067 261.159C699.265 260.414 698.864 259.498 698.864 258.409C698.864 257.177 699.355 256.16 700.336 255.358C701.324 254.549 702.606 254.145 704.182 254.145C705.256 254.145 706.212 254.352 707.05 254.768C707.895 255.183 708.547 255.756 709.005 256.486C709.47 257.217 709.703 258.015 709.703 258.882H707.63C707.63 257.937 707.329 257.195 706.728 256.658C706.126 256.114 705.277 255.842 704.182 255.842C703.165 255.842 702.37 256.067 701.797 256.519C701.231 256.963 700.948 257.582 700.948 258.377C700.948 259.014 701.217 259.555 701.754 259.999C702.298 260.436 703.218 260.837 704.515 261.202C705.818 261.567 706.835 261.972 707.565 262.416C708.303 262.853 708.847 263.365 709.198 263.952C709.556 264.539 709.735 265.23 709.735 266.025C709.735 267.293 709.241 268.31 708.253 269.076C707.265 269.835 705.943 270.215 704.289 270.215C703.215 270.215 702.212 270.011 701.281 269.603C700.35 269.187 699.631 268.621 699.122 267.905C698.621 267.189 698.37 266.376 698.37 265.467H700.443C700.443 266.412 700.791 267.16 701.485 267.712C702.187 268.256 703.122 268.528 704.289 268.528C705.378 268.528 706.212 268.306 706.792 267.862C707.372 267.418 707.662 266.813 707.662 266.047C707.662 265.281 707.394 264.69 706.856 264.274C706.319 263.852 705.345 263.437 703.935 263.028ZM719.253 270C719.138 269.771 719.045 269.363 718.974 268.775C718.05 269.735 716.947 270.215 715.665 270.215C714.519 270.215 713.577 269.893 712.84 269.248C712.109 268.596 711.744 267.773 711.744 266.777C711.744 265.567 712.202 264.629 713.119 263.963C714.043 263.29 715.339 262.953 717.008 262.953H718.941V262.04C718.941 261.345 718.734 260.794 718.318 260.386C717.903 259.97 717.291 259.763 716.481 259.763C715.772 259.763 715.178 259.942 714.698 260.3C714.218 260.658 713.979 261.091 713.979 261.6H711.98C711.98 261.02 712.185 260.461 712.593 259.924C713.008 259.38 713.567 258.95 714.269 258.635C714.978 258.32 715.755 258.162 716.6 258.162C717.939 258.162 718.988 258.499 719.747 259.172C720.506 259.838 720.9 260.758 720.929 261.933V267.282C720.929 268.349 721.065 269.198 721.337 269.828V270H719.253ZM715.955 268.485C716.578 268.485 717.169 268.324 717.728 268.002C718.286 267.68 718.691 267.261 718.941 266.745V264.36H717.384C714.949 264.36 713.731 265.073 713.731 266.498C713.731 267.121 713.939 267.608 714.354 267.959C714.77 268.31 715.303 268.485 715.955 268.485ZM725.021 270V259.913H723.185V258.377H725.021V257.185C725.021 255.938 725.354 254.975 726.021 254.295C726.687 253.615 727.628 253.274 728.846 253.274C729.304 253.274 729.759 253.335 730.21 253.457L730.103 255.068C729.766 255.004 729.408 254.972 729.028 254.972C728.384 254.972 727.886 255.161 727.535 255.541C727.184 255.913 727.009 256.451 727.009 257.152V258.377H729.49V259.913H727.009V270H725.021ZM736.258 270.215C734.682 270.215 733.4 269.699 732.412 268.668C731.424 267.63 730.93 266.244 730.93 264.511V264.146C730.93 262.993 731.148 261.965 731.585 261.062C732.029 260.153 732.645 259.444 733.433 258.936C734.228 258.42 735.087 258.162 736.011 258.162C737.522 258.162 738.696 258.66 739.534 259.655C740.372 260.651 740.791 262.076 740.791 263.931V264.758H732.917C732.946 265.904 733.279 266.831 733.916 267.54C734.561 268.242 735.377 268.593 736.365 268.593C737.067 268.593 737.661 268.45 738.148 268.163C738.635 267.877 739.062 267.497 739.427 267.024L740.641 267.97C739.667 269.466 738.206 270.215 736.258 270.215ZM736.011 259.795C735.209 259.795 734.535 260.089 733.991 260.676C733.447 261.256 733.11 262.072 732.981 263.125H738.804V262.975C738.746 261.965 738.474 261.184 737.987 260.633C737.5 260.074 736.841 259.795 736.011 259.795ZM747 262.62L749.578 258.377H751.898L748.096 264.124L752.017 270H749.718L747.032 265.649L744.347 270H742.037L745.958 264.124L742.155 258.377H744.454L747 262.62ZM569.475 294.593C570.184 294.593 570.803 294.378 571.333 293.948C571.863 293.519 572.157 292.981 572.214 292.337H574.094C574.058 293.003 573.829 293.637 573.406 294.238C572.984 294.84 572.418 295.32 571.709 295.678C571.007 296.036 570.262 296.215 569.475 296.215C567.892 296.215 566.632 295.688 565.693 294.636C564.762 293.576 564.297 292.129 564.297 290.296V289.963C564.297 288.831 564.505 287.825 564.92 286.944C565.335 286.063 565.93 285.38 566.703 284.893C567.484 284.406 568.404 284.162 569.464 284.162C570.767 284.162 571.849 284.552 572.708 285.333C573.575 286.114 574.036 287.127 574.094 288.373H572.214C572.157 287.621 571.87 287.005 571.354 286.525C570.846 286.038 570.216 285.795 569.464 285.795C568.454 285.795 567.67 286.16 567.111 286.891C566.56 287.614 566.284 288.663 566.284 290.038V290.414C566.284 291.753 566.56 292.785 567.111 293.508C567.663 294.231 568.451 294.593 569.475 294.593ZM578.487 296H576.5V279.5H578.487V296ZM588.854 296C588.739 295.771 588.646 295.363 588.574 294.775C587.65 295.735 586.548 296.215 585.266 296.215C584.12 296.215 583.178 295.893 582.44 295.248C581.71 294.596 581.345 293.773 581.345 292.777C581.345 291.567 581.803 290.629 582.72 289.963C583.644 289.29 584.94 288.953 586.608 288.953H588.542V288.04C588.542 287.345 588.334 286.794 587.919 286.386C587.504 285.97 586.891 285.763 586.082 285.763C585.373 285.763 584.779 285.942 584.299 286.3C583.819 286.658 583.579 287.091 583.579 287.6H581.581C581.581 287.02 581.785 286.461 582.193 285.924C582.609 285.38 583.167 284.95 583.869 284.635C584.578 284.32 585.355 284.162 586.2 284.162C587.539 284.162 588.589 284.499 589.348 285.172C590.107 285.838 590.501 286.758 590.529 287.933V293.282C590.529 294.349 590.665 295.198 590.938 295.828V296H588.854ZM585.556 294.485C586.179 294.485 586.77 294.324 587.328 294.002C587.887 293.68 588.291 293.261 588.542 292.745V290.36H586.984C584.549 290.36 583.332 291.073 583.332 292.498C583.332 293.121 583.54 293.608 583.955 293.959C584.37 294.31 584.904 294.485 585.556 294.485ZM595.804 296H593.816V284.377H595.804V296ZM593.655 281.294C593.655 280.972 593.752 280.7 593.945 280.478C594.146 280.256 594.439 280.145 594.826 280.145C595.213 280.145 595.507 280.256 595.707 280.478C595.908 280.7 596.008 280.972 596.008 281.294C596.008 281.616 595.908 281.885 595.707 282.1C595.507 282.314 595.213 282.422 594.826 282.422C594.439 282.422 594.146 282.314 593.945 282.1C593.752 281.885 593.655 281.616 593.655 281.294ZM600.863 284.377L600.917 285.666C601.769 284.663 602.919 284.162 604.365 284.162C605.991 284.162 607.097 284.785 607.685 286.031C608.071 285.473 608.573 285.021 609.188 284.678C609.812 284.334 610.546 284.162 611.391 284.162C613.94 284.162 615.236 285.512 615.279 288.212V296H613.292V288.33C613.292 287.499 613.102 286.88 612.723 286.472C612.343 286.056 611.706 285.849 610.811 285.849C610.073 285.849 609.461 286.071 608.974 286.515C608.487 286.951 608.204 287.542 608.125 288.287V296H606.127V288.384C606.127 286.694 605.3 285.849 603.646 285.849C602.342 285.849 601.451 286.404 600.971 287.514V296H598.983V284.377H600.863ZM625.055 292.917C625.055 292.38 624.851 291.965 624.442 291.671C624.041 291.37 623.336 291.112 622.326 290.897C621.324 290.683 620.525 290.425 619.931 290.124C619.343 289.823 618.907 289.465 618.62 289.05C618.341 288.634 618.201 288.14 618.201 287.567C618.201 286.615 618.602 285.809 619.404 285.15C620.214 284.492 621.245 284.162 622.498 284.162C623.816 284.162 624.883 284.502 625.699 285.183C626.523 285.863 626.935 286.733 626.935 287.793H624.937C624.937 287.249 624.704 286.78 624.238 286.386C623.78 285.992 623.2 285.795 622.498 285.795C621.775 285.795 621.209 285.952 620.801 286.268C620.393 286.583 620.188 286.994 620.188 287.503C620.188 287.983 620.378 288.344 620.758 288.588C621.137 288.831 621.821 289.064 622.81 289.286C623.805 289.508 624.611 289.773 625.227 290.081C625.842 290.389 626.297 290.761 626.591 291.198C626.892 291.628 627.042 292.154 627.042 292.777C627.042 293.816 626.627 294.65 625.796 295.28C624.965 295.903 623.887 296.215 622.562 296.215C621.632 296.215 620.808 296.05 620.092 295.721C619.376 295.391 618.813 294.933 618.405 294.346C618.004 293.751 617.804 293.11 617.804 292.423H619.791C619.827 293.089 620.092 293.619 620.586 294.013C621.087 294.399 621.746 294.593 622.562 294.593C623.314 294.593 623.916 294.442 624.367 294.142C624.826 293.834 625.055 293.425 625.055 292.917ZM635.013 289.651C635.013 288.033 635.228 286.479 635.657 284.989C636.094 283.5 636.742 282.146 637.602 280.929C638.461 279.711 639.353 278.852 640.276 278.351L640.685 279.661C639.639 280.463 638.78 281.688 638.106 283.335C637.44 284.982 637.075 286.826 637.011 288.867L637 289.78C637 292.545 637.505 294.944 638.515 296.978C639.123 298.195 639.847 299.147 640.685 299.835L640.276 301.049C639.324 300.519 638.414 299.631 637.548 298.385C635.858 295.95 635.013 293.039 635.013 289.651ZM646.894 288.728L644.981 290.715V296H642.919V280.359H644.981V288.094L651.932 280.359H654.424L648.269 287.267L654.907 296H652.437L646.894 288.728ZM658.56 296H656.572V279.5H658.56V296ZM666.573 296.215C664.998 296.215 663.716 295.699 662.728 294.668C661.739 293.63 661.245 292.244 661.245 290.511V290.146C661.245 288.993 661.464 287.965 661.9 287.062C662.344 286.153 662.96 285.444 663.748 284.936C664.543 284.42 665.402 284.162 666.326 284.162C667.837 284.162 669.012 284.66 669.85 285.655C670.688 286.651 671.106 288.076 671.106 289.931V290.758H663.232C663.261 291.904 663.594 292.831 664.231 293.54C664.876 294.242 665.692 294.593 666.681 294.593C667.382 294.593 667.977 294.45 668.464 294.163C668.951 293.877 669.377 293.497 669.742 293.024L670.956 293.97C669.982 295.466 668.521 296.215 666.573 296.215ZM666.326 285.795C665.524 285.795 664.851 286.089 664.307 286.676C663.762 287.256 663.426 288.072 663.297 289.125H669.119V288.975C669.062 287.965 668.79 287.184 668.303 286.633C667.816 286.074 667.157 285.795 666.326 285.795ZM679.034 286.16C678.733 286.11 678.408 286.085 678.057 286.085C676.753 286.085 675.869 286.64 675.403 287.75V296H673.416V284.377H675.35L675.382 285.72C676.034 284.681 676.957 284.162 678.153 284.162C678.54 284.162 678.834 284.212 679.034 284.312V286.16ZM680.13 290.081C680.13 288.942 680.352 287.918 680.796 287.009C681.247 286.099 681.87 285.397 682.665 284.903C683.467 284.409 684.38 284.162 685.404 284.162C686.987 284.162 688.265 284.71 689.239 285.806C690.22 286.901 690.711 288.359 690.711 290.178V290.317C690.711 291.449 690.493 292.466 690.056 293.368C689.626 294.263 689.007 294.962 688.197 295.463C687.395 295.964 686.471 296.215 685.426 296.215C683.85 296.215 682.572 295.667 681.591 294.571C680.617 293.476 680.13 292.025 680.13 290.221V290.081ZM682.128 290.317C682.128 291.606 682.425 292.641 683.02 293.422C683.621 294.202 684.423 294.593 685.426 294.593C686.436 294.593 687.238 294.199 687.832 293.411C688.426 292.616 688.724 291.506 688.724 290.081C688.724 288.806 688.419 287.775 687.811 286.987C687.209 286.192 686.407 285.795 685.404 285.795C684.423 285.795 683.632 286.185 683.03 286.966C682.429 287.746 682.128 288.864 682.128 290.317ZM699.971 292.917C699.971 292.38 699.767 291.965 699.358 291.671C698.957 291.37 698.252 291.112 697.242 290.897C696.24 290.683 695.441 290.425 694.847 290.124C694.259 289.823 693.823 289.465 693.536 289.05C693.257 288.634 693.117 288.14 693.117 287.567C693.117 286.615 693.518 285.809 694.32 285.15C695.13 284.492 696.161 284.162 697.414 284.162C698.732 284.162 699.799 284.502 700.615 285.183C701.439 285.863 701.851 286.733 701.851 287.793H699.853C699.853 287.249 699.62 286.78 699.154 286.386C698.696 285.992 698.116 285.795 697.414 285.795C696.691 285.795 696.125 285.952 695.717 286.268C695.309 286.583 695.104 286.994 695.104 287.503C695.104 287.983 695.294 288.344 695.674 288.588C696.053 288.831 696.737 289.064 697.726 289.286C698.721 289.508 699.527 289.773 700.143 290.081C700.758 290.389 701.213 290.761 701.507 291.198C701.808 291.628 701.958 292.154 701.958 292.777C701.958 293.816 701.543 294.65 700.712 295.28C699.881 295.903 698.803 296.215 697.479 296.215C696.548 296.215 695.724 296.05 695.008 295.721C694.292 295.391 693.729 294.933 693.321 294.346C692.92 293.751 692.72 293.11 692.72 292.423H694.707C694.743 293.089 695.008 293.619 695.502 294.013C696.003 294.399 696.662 294.593 697.479 294.593C698.23 294.593 698.832 294.442 699.283 294.142C699.742 293.834 699.971 293.425 699.971 292.917ZM709.134 289.759C709.134 291.356 708.923 292.888 708.5 294.356C708.085 295.817 707.444 297.167 706.577 298.406C705.718 299.645 704.815 300.526 703.87 301.049L703.451 299.835C704.554 298.99 705.438 297.679 706.104 295.903C706.778 294.12 707.121 292.144 707.136 289.974V289.63C707.136 288.126 706.978 286.729 706.663 285.44C706.348 284.144 705.908 282.984 705.342 281.96C704.783 280.936 704.153 280.137 703.451 279.564L703.87 278.351C704.815 278.873 705.714 279.747 706.566 280.972C707.426 282.196 708.067 283.546 708.489 285.021C708.919 286.497 709.134 288.076 709.134 289.759Z" fill="white"/>
<rect x="809" y="416" width="272" height="78" stroke="white" stroke-width="2"/>
<path d="M863.617 447.261L868.086 434.359H870.342L864.541 450H862.715L856.925 434.359H859.17L863.617 447.261ZM878.817 450C878.703 449.771 878.61 449.363 878.538 448.775C877.614 449.735 876.511 450.215 875.229 450.215C874.084 450.215 873.142 449.893 872.404 449.248C871.674 448.596 871.309 447.773 871.309 446.777C871.309 445.567 871.767 444.629 872.684 443.963C873.607 443.29 874.904 442.953 876.572 442.953H878.506V442.04C878.506 441.345 878.298 440.794 877.883 440.386C877.467 439.97 876.855 439.763 876.046 439.763C875.337 439.763 874.743 439.942 874.263 440.3C873.783 440.658 873.543 441.091 873.543 441.6H871.545C871.545 441.02 871.749 440.461 872.157 439.924C872.573 439.38 873.131 438.95 873.833 438.635C874.542 438.32 875.319 438.162 876.164 438.162C877.503 438.162 878.552 438.499 879.312 439.172C880.071 439.838 880.465 440.758 880.493 441.933V447.282C880.493 448.349 880.629 449.198 880.901 449.828V450H878.817ZM875.52 448.485C876.143 448.485 876.733 448.324 877.292 448.002C877.851 447.68 878.255 447.261 878.506 446.745V444.36H876.948C874.513 444.36 873.296 445.073 873.296 446.498C873.296 447.121 873.504 447.608 873.919 447.959C874.334 448.31 874.868 448.485 875.52 448.485ZM885.768 450H883.78V433.5H885.768V450ZM891.117 450H889.13V438.377H891.117V450ZM888.969 435.294C888.969 434.972 889.065 434.7 889.259 434.478C889.459 434.256 889.753 434.145 890.14 434.145C890.526 434.145 890.82 434.256 891.021 434.478C891.221 434.7 891.321 434.972 891.321 435.294C891.321 435.616 891.221 435.885 891.021 436.1C890.82 436.314 890.526 436.422 890.14 436.422C889.753 436.422 889.459 436.314 889.259 436.1C889.065 435.885 888.969 435.616 888.969 435.294ZM893.824 444.092C893.824 442.309 894.247 440.876 895.092 439.795C895.937 438.706 897.043 438.162 898.411 438.162C899.772 438.162 900.85 438.628 901.645 439.559V433.5H903.632V450H901.806L901.709 448.754C900.914 449.728 899.808 450.215 898.39 450.215C897.043 450.215 895.944 449.663 895.092 448.561C894.247 447.458 893.824 446.018 893.824 444.242V444.092ZM895.812 444.317C895.812 445.635 896.084 446.666 896.628 447.411C897.172 448.156 897.924 448.528 898.884 448.528C900.144 448.528 901.064 447.963 901.645 446.831V441.492C901.05 440.396 900.137 439.849 898.905 439.849C897.931 439.849 897.172 440.225 896.628 440.977C896.084 441.729 895.812 442.842 895.812 444.317ZM913.901 450C913.787 449.771 913.694 449.363 913.622 448.775C912.698 449.735 911.595 450.215 910.313 450.215C909.168 450.215 908.226 449.893 907.488 449.248C906.758 448.596 906.393 447.773 906.393 446.777C906.393 445.567 906.851 444.629 907.768 443.963C908.691 443.29 909.988 442.953 911.656 442.953H913.59V442.04C913.59 441.345 913.382 440.794 912.967 440.386C912.551 439.97 911.939 439.763 911.13 439.763C910.421 439.763 909.826 439.942 909.347 440.3C908.867 440.658 908.627 441.091 908.627 441.6H906.629C906.629 441.02 906.833 440.461 907.241 439.924C907.657 439.38 908.215 438.95 908.917 438.635C909.626 438.32 910.403 438.162 911.248 438.162C912.587 438.162 913.636 438.499 914.396 439.172C915.155 439.838 915.549 440.758 915.577 441.933V447.282C915.577 448.349 915.713 449.198 915.985 449.828V450H913.901ZM910.604 448.485C911.227 448.485 911.817 448.324 912.376 448.002C912.935 447.68 913.339 447.261 913.59 446.745V444.36H912.032C909.597 444.36 908.38 445.073 908.38 446.498C908.38 447.121 908.588 447.608 909.003 447.959C909.418 448.31 909.952 448.485 910.604 448.485ZM921.389 435.562V438.377H923.559V439.913H921.389V447.121C921.389 447.587 921.485 447.938 921.679 448.174C921.872 448.403 922.201 448.518 922.667 448.518C922.896 448.518 923.211 448.475 923.612 448.389V450C923.09 450.143 922.581 450.215 922.087 450.215C921.199 450.215 920.529 449.946 920.078 449.409C919.627 448.872 919.401 448.109 919.401 447.121V439.913H917.285V438.377H919.401V435.562H921.389ZM930.713 450.215C929.137 450.215 927.855 449.699 926.867 448.668C925.879 447.63 925.385 446.244 925.385 444.511V444.146C925.385 442.993 925.603 441.965 926.04 441.062C926.484 440.153 927.1 439.444 927.888 438.936C928.683 438.42 929.542 438.162 930.466 438.162C931.977 438.162 933.151 438.66 933.989 439.655C934.827 440.651 935.246 442.076 935.246 443.931V444.758H927.372C927.401 445.904 927.734 446.831 928.371 447.54C929.016 448.242 929.832 448.593 930.82 448.593C931.522 448.593 932.117 448.45 932.604 448.163C933.09 447.877 933.517 447.497 933.882 447.024L935.096 447.97C934.122 449.466 932.661 450.215 930.713 450.215ZM930.466 439.795C929.664 439.795 928.991 440.089 928.446 440.676C927.902 441.256 927.565 442.072 927.437 443.125H933.259V442.975C933.201 441.965 932.929 441.184 932.442 440.633C931.955 440.074 931.297 439.795 930.466 439.795ZM942.529 444.092C942.529 442.309 942.952 440.876 943.797 439.795C944.642 438.706 945.748 438.162 947.116 438.162C948.477 438.162 949.555 438.628 950.35 439.559V433.5H952.337V450H950.511L950.414 448.754C949.619 449.728 948.513 450.215 947.095 450.215C945.748 450.215 944.649 449.663 943.797 448.561C942.952 447.458 942.529 446.018 942.529 444.242V444.092ZM944.517 444.317C944.517 445.635 944.789 446.666 945.333 447.411C945.877 448.156 946.629 448.528 947.589 448.528C948.849 448.528 949.77 447.963 950.35 446.831V441.492C949.755 440.396 948.842 439.849 947.61 439.849C946.636 439.849 945.877 440.225 945.333 440.977C944.789 441.729 944.517 442.842 944.517 444.317ZM960.254 450.215C958.678 450.215 957.396 449.699 956.408 448.668C955.42 447.63 954.926 446.244 954.926 444.511V444.146C954.926 442.993 955.144 441.965 955.581 441.062C956.025 440.153 956.641 439.444 957.429 438.936C958.224 438.42 959.083 438.162 960.007 438.162C961.518 438.162 962.692 438.66 963.53 439.655C964.368 440.651 964.787 442.076 964.787 443.931V444.758H956.913C956.942 445.904 957.275 446.831 957.912 447.54C958.557 448.242 959.373 448.593 960.361 448.593C961.063 448.593 961.658 448.45 962.145 448.163C962.632 447.877 963.058 447.497 963.423 447.024L964.637 447.97C963.663 449.466 962.202 450.215 960.254 450.215ZM960.007 439.795C959.205 439.795 958.532 440.089 957.987 440.676C957.443 441.256 957.106 442.072 956.978 443.125H962.8V442.975C962.743 441.965 962.47 441.184 961.983 440.633C961.496 440.074 960.838 439.795 960.007 439.795ZM974.272 450C974.158 449.771 974.065 449.363 973.993 448.775C973.069 449.735 971.966 450.215 970.685 450.215C969.539 450.215 968.597 449.893 967.859 449.248C967.129 448.596 966.764 447.773 966.764 446.777C966.764 445.567 967.222 444.629 968.139 443.963C969.062 443.29 970.359 442.953 972.027 442.953H973.961V442.04C973.961 441.345 973.753 440.794 973.338 440.386C972.923 439.97 972.31 439.763 971.501 439.763C970.792 439.763 970.198 439.942 969.718 440.3C969.238 440.658 968.998 441.091 968.998 441.6H967C967 441.02 967.204 440.461 967.612 439.924C968.028 439.38 968.586 438.95 969.288 438.635C969.997 438.32 970.774 438.162 971.619 438.162C972.958 438.162 974.007 438.499 974.767 439.172C975.526 439.838 975.92 440.758 975.948 441.933V447.282C975.948 448.349 976.084 449.198 976.356 449.828V450H974.272ZM970.975 448.485C971.598 448.485 972.188 448.324 972.747 448.002C973.306 447.68 973.71 447.261 973.961 446.745V444.36H972.403C969.968 444.36 968.751 445.073 968.751 446.498C968.751 447.121 968.959 447.608 969.374 447.959C969.789 448.31 970.323 448.485 970.975 448.485ZM978.58 444.092C978.58 442.309 979.003 440.876 979.848 439.795C980.693 438.706 981.799 438.162 983.167 438.162C984.528 438.162 985.605 438.628 986.4 439.559V433.5H988.388V450H986.562L986.465 448.754C985.67 449.728 984.563 450.215 983.146 450.215C981.799 450.215 980.7 449.663 979.848 448.561C979.003 447.458 978.58 446.018 978.58 444.242V444.092ZM980.567 444.317C980.567 445.635 980.84 446.666 981.384 447.411C981.928 448.156 982.68 448.528 983.64 448.528C984.9 448.528 985.82 447.963 986.4 446.831V441.492C985.806 440.396 984.893 439.849 983.661 439.849C982.687 439.849 981.928 440.225 981.384 440.977C980.84 441.729 980.567 442.842 980.567 444.317ZM993.351 438.377L993.404 439.666C994.257 438.663 995.406 438.162 996.853 438.162C998.478 438.162 999.585 438.785 1000.17 440.031C1000.56 439.473 1001.06 439.021 1001.68 438.678C1002.3 438.334 1003.03 438.162 1003.88 438.162C1006.43 438.162 1007.72 439.512 1007.77 442.212V450H1005.78V442.33C1005.78 441.499 1005.59 440.88 1005.21 440.472C1004.83 440.056 1004.19 439.849 1003.3 439.849C1002.56 439.849 1001.95 440.071 1001.46 440.515C1000.97 440.951 1000.69 441.542 1000.61 442.287V450H998.614V442.384C998.614 440.694 997.787 439.849 996.133 439.849C994.829 439.849 993.938 440.404 993.458 441.514V450H991.471V438.377H993.351ZM1017.95 450C1017.84 449.771 1017.74 449.363 1017.67 448.775C1016.75 449.735 1015.64 450.215 1014.36 450.215C1013.22 450.215 1012.27 449.893 1011.54 449.248C1010.81 448.596 1010.44 447.773 1010.44 446.777C1010.44 445.567 1010.9 444.629 1011.82 443.963C1012.74 443.29 1014.04 442.953 1015.71 442.953H1017.64V442.04C1017.64 441.345 1017.43 440.794 1017.02 440.386C1016.6 439.97 1015.99 439.763 1015.18 439.763C1014.47 439.763 1013.88 439.942 1013.4 440.3C1012.92 440.658 1012.68 441.091 1012.68 441.6H1010.68C1010.68 441.02 1010.88 440.461 1011.29 439.924C1011.71 439.38 1012.26 438.95 1012.97 438.635C1013.67 438.32 1014.45 438.162 1015.3 438.162C1016.64 438.162 1017.69 438.499 1018.44 439.172C1019.2 439.838 1019.6 440.758 1019.63 441.933V447.282C1019.63 448.349 1019.76 449.198 1020.03 449.828V450H1017.95ZM1014.65 448.485C1015.28 448.485 1015.87 448.324 1016.42 448.002C1016.98 447.68 1017.39 447.261 1017.64 446.745V444.36H1016.08C1013.65 444.36 1012.43 445.073 1012.43 446.498C1012.43 447.121 1012.64 447.608 1013.05 447.959C1013.47 448.31 1014 448.485 1014.65 448.485ZM1024.62 438.377L1024.69 439.838C1025.57 438.721 1026.73 438.162 1028.17 438.162C1030.62 438.162 1031.86 439.548 1031.88 442.319V450H1029.9V442.309C1029.89 441.471 1029.69 440.851 1029.32 440.45C1028.94 440.049 1028.36 439.849 1027.56 439.849C1026.92 439.849 1026.35 440.021 1025.87 440.364C1025.38 440.708 1025 441.159 1024.73 441.718V450H1022.74V438.377H1024.62ZM921.238 472.917C921.238 472.38 921.034 471.965 920.626 471.671C920.225 471.37 919.52 471.112 918.51 470.897C917.507 470.683 916.709 470.425 916.114 470.124C915.527 469.823 915.09 469.465 914.804 469.05C914.524 468.634 914.385 468.14 914.385 467.567C914.385 466.615 914.786 465.809 915.588 465.15C916.397 464.492 917.428 464.162 918.682 464.162C919.999 464.162 921.066 464.502 921.883 465.183C922.706 465.863 923.118 466.733 923.118 467.793H921.12C921.12 467.249 920.887 466.78 920.422 466.386C919.964 465.992 919.383 465.795 918.682 465.795C917.958 465.795 917.393 465.952 916.984 466.268C916.576 466.583 916.372 466.994 916.372 467.503C916.372 467.983 916.562 468.344 916.941 468.588C917.321 468.831 918.005 469.064 918.993 469.286C919.989 469.508 920.794 469.773 921.41 470.081C922.026 470.389 922.481 470.761 922.774 471.198C923.075 471.628 923.226 472.154 923.226 472.777C923.226 473.816 922.81 474.65 921.979 475.28C921.149 475.903 920.071 476.215 918.746 476.215C917.815 476.215 916.992 476.05 916.275 475.721C915.559 475.391 914.997 474.933 914.589 474.346C914.188 473.751 913.987 473.11 913.987 472.423H915.975C916.01 473.089 916.275 473.619 916.77 474.013C917.271 474.399 917.93 474.593 918.746 474.593C919.498 474.593 920.1 474.442 920.551 474.142C921.009 473.834 921.238 473.425 921.238 472.917ZM936.105 473.261L938.34 464.377H940.327L936.943 476H935.332L932.507 467.191L929.757 476H928.146L924.772 464.377H926.749L929.037 473.078L931.744 464.377H933.345L936.105 473.261ZM944.517 476H942.529V464.377H944.517V476ZM942.368 461.294C942.368 460.972 942.465 460.7 942.658 460.478C942.859 460.256 943.152 460.145 943.539 460.145C943.926 460.145 944.219 460.256 944.42 460.478C944.62 460.7 944.721 460.972 944.721 461.294C944.721 461.616 944.62 461.885 944.42 462.1C944.219 462.314 943.926 462.422 943.539 462.422C943.152 462.422 942.859 462.314 942.658 462.1C942.465 461.885 942.368 461.616 942.368 461.294ZM950.403 461.562V464.377H952.573V465.913H950.403V473.121C950.403 473.587 950.5 473.938 950.693 474.174C950.887 474.403 951.216 474.518 951.682 474.518C951.911 474.518 952.226 474.475 952.627 474.389V476C952.104 476.143 951.596 476.215 951.102 476.215C950.214 476.215 949.544 475.946 949.093 475.409C948.642 474.872 948.416 474.109 948.416 473.121V465.913H946.3V464.377H948.416V461.562H950.403ZM959.566 474.593C960.275 474.593 960.895 474.378 961.425 473.948C961.955 473.519 962.248 472.981 962.306 472.337H964.186C964.15 473.003 963.921 473.637 963.498 474.238C963.076 474.84 962.51 475.32 961.801 475.678C961.099 476.036 960.354 476.215 959.566 476.215C957.984 476.215 956.723 475.688 955.785 474.636C954.854 473.576 954.389 472.129 954.389 470.296V469.963C954.389 468.831 954.596 467.825 955.012 466.944C955.427 466.063 956.021 465.38 956.795 464.893C957.576 464.406 958.496 464.162 959.556 464.162C960.859 464.162 961.94 464.552 962.8 465.333C963.666 466.114 964.128 467.127 964.186 468.373H962.306C962.248 467.621 961.962 467.005 961.446 466.525C960.938 466.038 960.308 465.795 959.556 465.795C958.546 465.795 957.762 466.16 957.203 466.891C956.652 467.614 956.376 468.663 956.376 470.038V470.414C956.376 471.753 956.652 472.785 957.203 473.508C957.755 474.231 958.542 474.593 959.566 474.593ZM968.407 465.784C969.288 464.703 970.434 464.162 971.845 464.162C974.301 464.162 975.54 465.548 975.562 468.319V476H973.574V468.309C973.567 467.471 973.374 466.851 972.994 466.45C972.622 466.049 972.038 465.849 971.243 465.849C970.599 465.849 970.033 466.021 969.546 466.364C969.059 466.708 968.679 467.159 968.407 467.718V476H966.42V459.5H968.407V465.784Z" fill="white"/>
<rect x="198" y="422" width="240" height="80" fill="#5452F6"/>
<path d="M275.742 465.586C275.531 467.391 274.863 468.785 273.738 469.77C272.621 470.746 271.133 471.234 269.273 471.234C267.258 471.234 265.641 470.512 264.422 469.066C263.211 467.621 262.605 465.688 262.605 463.266V461.625C262.605 460.039 262.887 458.645 263.449 457.441C264.02 456.238 264.824 455.316 265.863 454.676C266.902 454.027 268.105 453.703 269.473 453.703C271.285 453.703 272.738 454.211 273.832 455.227C274.926 456.234 275.562 457.633 275.742 459.422H273.48C273.285 458.062 272.859 457.078 272.203 456.469C271.555 455.859 270.645 455.555 269.473 455.555C268.035 455.555 266.906 456.086 266.086 457.148C265.273 458.211 264.867 459.723 264.867 461.684V463.336C264.867 465.188 265.254 466.66 266.027 467.754C266.801 468.848 267.883 469.395 269.273 469.395C270.523 469.395 271.48 469.113 272.145 468.551C272.816 467.98 273.262 466.992 273.48 465.586H275.742ZM280.84 471H278.672V453H280.84V471ZM292.148 471C292.023 470.75 291.922 470.305 291.844 469.664C290.836 470.711 289.633 471.234 288.234 471.234C286.984 471.234 285.957 470.883 285.152 470.18C284.355 469.469 283.957 468.57 283.957 467.484C283.957 466.164 284.457 465.141 285.457 464.414C286.465 463.68 287.879 463.312 289.699 463.312H291.809V462.316C291.809 461.559 291.582 460.957 291.129 460.512C290.676 460.059 290.008 459.832 289.125 459.832C288.352 459.832 287.703 460.027 287.18 460.418C286.656 460.809 286.395 461.281 286.395 461.836H284.215C284.215 461.203 284.438 460.594 284.883 460.008C285.336 459.414 285.945 458.945 286.711 458.602C287.484 458.258 288.332 458.086 289.254 458.086C290.715 458.086 291.859 458.453 292.688 459.188C293.516 459.914 293.945 460.918 293.977 462.199V468.035C293.977 469.199 294.125 470.125 294.422 470.812V471H292.148ZM288.551 469.348C289.23 469.348 289.875 469.172 290.484 468.82C291.094 468.469 291.535 468.012 291.809 467.449V464.848H290.109C287.453 464.848 286.125 465.625 286.125 467.18C286.125 467.859 286.352 468.391 286.805 468.773C287.258 469.156 287.84 469.348 288.551 469.348ZM299.73 471H297.562V458.32H299.73V471ZM297.387 454.957C297.387 454.605 297.492 454.309 297.703 454.066C297.922 453.824 298.242 453.703 298.664 453.703C299.086 453.703 299.406 453.824 299.625 454.066C299.844 454.309 299.953 454.605 299.953 454.957C299.953 455.309 299.844 455.602 299.625 455.836C299.406 456.07 299.086 456.188 298.664 456.188C298.242 456.188 297.922 456.07 297.703 455.836C297.492 455.602 297.387 455.309 297.387 454.957ZM305.25 458.32L305.309 459.727C306.238 458.633 307.492 458.086 309.07 458.086C310.844 458.086 312.051 458.766 312.691 460.125C313.113 459.516 313.66 459.023 314.332 458.648C315.012 458.273 315.812 458.086 316.734 458.086C319.516 458.086 320.93 459.559 320.977 462.504V471H318.809V462.633C318.809 461.727 318.602 461.051 318.188 460.605C317.773 460.152 317.078 459.926 316.102 459.926C315.297 459.926 314.629 460.168 314.098 460.652C313.566 461.129 313.258 461.773 313.172 462.586V471H310.992V462.691C310.992 460.848 310.09 459.926 308.285 459.926C306.863 459.926 305.891 460.531 305.367 461.742V471H303.199V458.32H305.25ZM337.594 467.637C337.594 467.051 337.371 466.598 336.926 466.277C336.488 465.949 335.719 465.668 334.617 465.434C333.523 465.199 332.652 464.918 332.004 464.59C331.363 464.262 330.887 463.871 330.574 463.418C330.27 462.965 330.117 462.426 330.117 461.801C330.117 460.762 330.555 459.883 331.43 459.164C332.312 458.445 333.438 458.086 334.805 458.086C336.242 458.086 337.406 458.457 338.297 459.199C339.195 459.941 339.645 460.891 339.645 462.047H337.465C337.465 461.453 337.211 460.941 336.703 460.512C336.203 460.082 335.57 459.867 334.805 459.867C334.016 459.867 333.398 460.039 332.953 460.383C332.508 460.727 332.285 461.176 332.285 461.73C332.285 462.254 332.492 462.648 332.906 462.914C333.32 463.18 334.066 463.434 335.145 463.676C336.23 463.918 337.109 464.207 337.781 464.543C338.453 464.879 338.949 465.285 339.27 465.762C339.598 466.23 339.762 466.805 339.762 467.484C339.762 468.617 339.309 469.527 338.402 470.215C337.496 470.895 336.32 471.234 334.875 471.234C333.859 471.234 332.961 471.055 332.18 470.695C331.398 470.336 330.785 469.836 330.34 469.195C329.902 468.547 329.684 467.848 329.684 467.098H331.852C331.891 467.824 332.18 468.402 332.719 468.832C333.266 469.254 333.984 469.465 334.875 469.465C335.695 469.465 336.352 469.301 336.844 468.973C337.344 468.637 337.594 468.191 337.594 467.637ZM350.414 471C350.289 470.75 350.188 470.305 350.109 469.664C349.102 470.711 347.898 471.234 346.5 471.234C345.25 471.234 344.223 470.883 343.418 470.18C342.621 469.469 342.223 468.57 342.223 467.484C342.223 466.164 342.723 465.141 343.723 464.414C344.73 463.68 346.145 463.312 347.965 463.312H350.074V462.316C350.074 461.559 349.848 460.957 349.395 460.512C348.941 460.059 348.273 459.832 347.391 459.832C346.617 459.832 345.969 460.027 345.445 460.418C344.922 460.809 344.66 461.281 344.66 461.836H342.48C342.48 461.203 342.703 460.594 343.148 460.008C343.602 459.414 344.211 458.945 344.977 458.602C345.75 458.258 346.598 458.086 347.52 458.086C348.98 458.086 350.125 458.453 350.953 459.188C351.781 459.914 352.211 460.918 352.242 462.199V468.035C352.242 469.199 352.391 470.125 352.688 470.812V471H350.414ZM346.816 469.348C347.496 469.348 348.141 469.172 348.75 468.82C349.359 468.469 349.801 468.012 350.074 467.449V464.848H348.375C345.719 464.848 344.391 465.625 344.391 467.18C344.391 467.859 344.617 468.391 345.07 468.773C345.523 469.156 346.105 469.348 346.816 469.348ZM356.707 471V459.996H354.703V458.32H356.707V457.02C356.707 455.66 357.07 454.609 357.797 453.867C358.523 453.125 359.551 452.754 360.879 452.754C361.379 452.754 361.875 452.82 362.367 452.953L362.25 454.711C361.883 454.641 361.492 454.605 361.078 454.605C360.375 454.605 359.832 454.812 359.449 455.227C359.066 455.633 358.875 456.219 358.875 456.984V458.32H361.582V459.996H358.875V471H356.707ZM368.965 471.234C367.246 471.234 365.848 470.672 364.77 469.547C363.691 468.414 363.152 466.902 363.152 465.012V464.613C363.152 463.355 363.391 462.234 363.867 461.25C364.352 460.258 365.023 459.484 365.883 458.93C366.75 458.367 367.688 458.086 368.695 458.086C370.344 458.086 371.625 458.629 372.539 459.715C373.453 460.801 373.91 462.355 373.91 464.379V465.281H365.32C365.352 466.531 365.715 467.543 366.41 468.316C367.113 469.082 368.004 469.465 369.082 469.465C369.848 469.465 370.496 469.309 371.027 468.996C371.559 468.684 372.023 468.27 372.422 467.754L373.746 468.785C372.684 470.418 371.09 471.234 368.965 471.234ZM368.695 459.867C367.82 459.867 367.086 460.188 366.492 460.828C365.898 461.461 365.531 462.352 365.391 463.5H371.742V463.336C371.68 462.234 371.383 461.383 370.852 460.781C370.32 460.172 369.602 459.867 368.695 459.867Z" fill="white"/>
<path d="M1121.67 275H1037" stroke="white" stroke-width="2"/>
<path d="M1077 274.598H1221C1237.57 274.598 1251 288.03 1251 304.598V388.598" stroke="white" stroke-width="2"/>
<path d="M1281.83 385.472L1249.74 403.079L1217.66 385.472" stroke="white" stroke-width="2"/>
<path d="M652.813 347.872C652.87 347.97 652.906 348.078 652.92 348.19C652.932 348.328 652.912 348.467 652.863 348.597C652.883 348.652 652.91 348.705 652.92 348.767C652.935 348.882 652.925 348.999 652.892 349.11C652.859 349.221 652.803 349.324 652.728 349.412L634.721 372.5L623.241 360.192L622.228 359.095C622.124 358.979 622.054 358.838 622.023 358.686C621.993 358.534 622.004 358.376 622.056 358.23C621.995 358.068 621.984 357.892 622.024 357.724C622.064 357.556 622.153 357.404 622.281 357.287L625.203 354.587C625.286 354.51 625.383 354.45 625.49 354.411C625.596 354.371 625.709 354.354 625.822 354.358C625.935 354.363 626.047 354.39 626.149 354.438C626.252 354.486 626.344 354.553 626.421 354.637L634.34 363.13L648.213 345.332C648.355 345.151 648.563 345.034 648.791 345.006C649.02 344.979 649.249 345.043 649.431 345.185L652.591 347.622C652.681 347.69 652.757 347.775 652.813 347.872Z" fill="white"/>
<path d="M1179.81 234.872C1179.87 234.97 1179.91 235.078 1179.92 235.19C1179.93 235.328 1179.91 235.467 1179.86 235.597C1179.88 235.652 1179.91 235.705 1179.92 235.767C1179.93 235.882 1179.92 235.999 1179.89 236.11C1179.86 236.221 1179.8 236.324 1179.73 236.412L1161.72 259.5L1150.24 247.192L1149.23 246.095C1149.12 245.979 1149.05 245.838 1149.02 245.686C1148.99 245.534 1149 245.376 1149.06 245.23C1148.99 245.068 1148.98 244.892 1149.02 244.724C1149.06 244.556 1149.15 244.404 1149.28 244.287L1152.2 241.587C1152.29 241.51 1152.38 241.45 1152.49 241.411C1152.6 241.371 1152.71 241.354 1152.82 241.358C1152.94 241.363 1153.05 241.39 1153.15 241.438C1153.25 241.486 1153.34 241.553 1153.42 241.637L1161.34 250.13L1175.21 232.332C1175.35 232.151 1175.56 232.034 1175.79 232.006C1176.02 231.979 1176.25 232.043 1176.43 232.185L1179.59 234.622C1179.68 234.69 1179.76 234.775 1179.81 234.872Z" fill="white"/>
<path d="M740.917 471L745.5 475.583L736.333 484.75L745.5 493.918L740.917 498.5L731.75 489.332L722.582 498.5L718 493.918L727.167 484.75L718 475.583L722.582 471L731.75 480.168L740.917 471Z" fill="white"/>
<path d="M606 377L519 461.5L606 546L693 461.5L606 377Z" fill="#6A45A2"/>
<path d="M550.184 441.368L555.297 454.129L560.41 441.368H563.085V457.008H561.022V450.917L561.216 444.343L556.081 457.008H554.502L549.378 444.375L549.582 450.917V457.008H547.52V441.368H550.184ZM573.591 457.008C573.476 456.779 573.383 456.371 573.312 455.784C572.388 456.743 571.285 457.223 570.003 457.223C568.857 457.223 567.915 456.901 567.178 456.256C566.447 455.605 566.082 454.781 566.082 453.786C566.082 452.575 566.54 451.637 567.457 450.971C568.381 450.298 569.677 449.961 571.346 449.961H573.279V449.048C573.279 448.354 573.072 447.802 572.656 447.394C572.241 446.979 571.629 446.771 570.819 446.771C570.11 446.771 569.516 446.95 569.036 447.308C568.556 447.666 568.316 448.099 568.316 448.608H566.318C566.318 448.028 566.522 447.469 566.931 446.932C567.346 446.388 567.905 445.958 568.606 445.643C569.315 445.328 570.092 445.17 570.938 445.17C572.277 445.17 573.326 445.507 574.085 446.18C574.844 446.846 575.238 447.766 575.267 448.941V454.291C575.267 455.358 575.403 456.206 575.675 456.836V457.008H573.591ZM570.293 455.494C570.916 455.494 571.507 455.333 572.065 455.01C572.624 454.688 573.029 454.269 573.279 453.753V451.369H571.722C569.287 451.369 568.069 452.081 568.069 453.506C568.069 454.129 568.277 454.616 568.692 454.967C569.108 455.318 569.641 455.494 570.293 455.494ZM580.262 445.385L580.326 446.846C581.214 445.729 582.374 445.17 583.807 445.17C586.263 445.17 587.502 446.556 587.523 449.328V457.008H585.536V449.317C585.529 448.479 585.336 447.86 584.956 447.458C584.584 447.057 584 446.857 583.205 446.857C582.561 446.857 581.995 447.029 581.508 447.373C581.021 447.716 580.641 448.167 580.369 448.726V457.008H578.382V445.385H580.262ZM597.696 455.859C596.923 456.768 595.788 457.223 594.291 457.223C593.052 457.223 592.107 456.865 591.455 456.149C590.811 455.426 590.485 454.359 590.478 452.948V445.385H592.465V452.894C592.465 454.656 593.181 455.537 594.613 455.537C596.132 455.537 597.141 454.971 597.643 453.839V445.385H599.63V457.008H597.739L597.696 455.859ZM609.835 457.008C609.72 456.779 609.627 456.371 609.556 455.784C608.632 456.743 607.529 457.223 606.247 457.223C605.101 457.223 604.16 456.901 603.422 456.256C602.691 455.605 602.326 454.781 602.326 453.786C602.326 452.575 602.785 451.637 603.701 450.971C604.625 450.298 605.921 449.961 607.59 449.961H609.523V449.048C609.523 448.354 609.316 447.802 608.9 447.394C608.485 446.979 607.873 446.771 607.063 446.771C606.354 446.771 605.76 446.95 605.28 447.308C604.8 447.666 604.561 448.099 604.561 448.608H602.562C602.562 448.028 602.767 447.469 603.175 446.932C603.59 446.388 604.149 445.958 604.851 445.643C605.56 445.328 606.337 445.17 607.182 445.17C608.521 445.17 609.57 445.507 610.329 446.18C611.088 446.846 611.482 447.766 611.511 448.941V454.291C611.511 455.358 611.647 456.206 611.919 456.836V457.008H609.835ZM606.537 455.494C607.16 455.494 607.751 455.333 608.31 455.01C608.868 454.688 609.273 454.269 609.523 453.753V451.369H607.966C605.531 451.369 604.313 452.081 604.313 453.506C604.313 454.129 604.521 454.616 604.937 454.967C605.352 455.318 605.885 455.494 606.537 455.494ZM616.785 457.008H614.798V440.508H616.785V457.008ZM632.2 453.925C632.2 453.388 631.996 452.973 631.588 452.679C631.187 452.378 630.481 452.121 629.472 451.906C628.469 451.691 627.671 451.433 627.076 451.132C626.489 450.832 626.052 450.473 625.766 450.058C625.486 449.643 625.347 449.149 625.347 448.576C625.347 447.623 625.748 446.818 626.55 446.159C627.359 445.5 628.39 445.17 629.644 445.17C630.961 445.17 632.028 445.511 632.845 446.191C633.668 446.871 634.08 447.741 634.08 448.801H632.082C632.082 448.257 631.849 447.788 631.384 447.394C630.925 447 630.345 446.803 629.644 446.803C628.92 446.803 628.354 446.961 627.946 447.276C627.538 447.591 627.334 448.003 627.334 448.511C627.334 448.991 627.524 449.353 627.903 449.596C628.283 449.84 628.967 450.072 629.955 450.294C630.951 450.516 631.756 450.781 632.372 451.089C632.988 451.397 633.443 451.77 633.736 452.207C634.037 452.636 634.188 453.163 634.188 453.786C634.188 454.824 633.772 455.658 632.941 456.289C632.111 456.912 631.033 457.223 629.708 457.223C628.777 457.223 627.953 457.058 627.237 456.729C626.521 456.4 625.959 455.941 625.551 455.354C625.15 454.76 624.949 454.119 624.949 453.431H626.937C626.972 454.097 627.237 454.627 627.731 455.021C628.233 455.408 628.892 455.601 629.708 455.601C630.46 455.601 631.062 455.451 631.513 455.15C631.971 454.842 632.2 454.434 632.2 453.925ZM643.952 457.008C643.838 456.779 643.744 456.371 643.673 455.784C642.749 456.743 641.646 457.223 640.364 457.223C639.218 457.223 638.277 456.901 637.539 456.256C636.809 455.605 636.443 454.781 636.443 453.786C636.443 452.575 636.902 451.637 637.818 450.971C638.742 450.298 640.038 449.961 641.707 449.961H643.641V449.048C643.641 448.354 643.433 447.802 643.018 447.394C642.602 446.979 641.99 446.771 641.181 446.771C640.472 446.771 639.877 446.95 639.397 447.308C638.918 447.666 638.678 448.099 638.678 448.608H636.68C636.68 448.028 636.884 447.469 637.292 446.932C637.707 446.388 638.266 445.958 638.968 445.643C639.677 445.328 640.454 445.17 641.299 445.17C642.638 445.17 643.687 445.507 644.446 446.18C645.205 446.846 645.599 447.766 645.628 448.941V454.291C645.628 455.358 645.764 456.206 646.036 456.836V457.008H643.952ZM640.654 455.494C641.277 455.494 641.868 455.333 642.427 455.01C642.985 454.688 643.39 454.269 643.641 453.753V451.369H642.083C639.648 451.369 638.431 452.081 638.431 453.506C638.431 454.129 638.638 454.616 639.054 454.967C639.469 455.318 640.003 455.494 640.654 455.494ZM649.721 457.008V446.921H647.884V445.385H649.721V444.193C649.721 442.947 650.054 441.984 650.72 441.303C651.386 440.623 652.327 440.283 653.545 440.283C654.003 440.283 654.458 440.344 654.909 440.465L654.802 442.077C654.465 442.012 654.107 441.98 653.728 441.98C653.083 441.98 652.585 442.17 652.234 442.549C651.883 442.922 651.708 443.459 651.708 444.161V445.385H654.189V446.921H651.708V457.008H649.721ZM660.957 457.223C659.382 457.223 658.1 456.708 657.111 455.676C656.123 454.638 655.629 453.252 655.629 451.519V451.154C655.629 450.001 655.847 448.973 656.284 448.071C656.728 447.161 657.344 446.452 658.132 445.944C658.927 445.428 659.786 445.17 660.71 445.17C662.221 445.17 663.396 445.668 664.233 446.664C665.071 447.659 665.49 449.084 665.49 450.939V451.766H657.616C657.645 452.912 657.978 453.839 658.615 454.548C659.26 455.25 660.076 455.601 661.064 455.601C661.766 455.601 662.361 455.458 662.848 455.171C663.335 454.885 663.761 454.505 664.126 454.033L665.34 454.978C664.366 456.475 662.905 457.223 660.957 457.223ZM660.71 446.803C659.908 446.803 659.235 447.097 658.69 447.684C658.146 448.264 657.81 449.081 657.681 450.133H663.503V449.983C663.446 448.973 663.174 448.193 662.687 447.641C662.2 447.083 661.541 446.803 660.71 446.803ZM580.229 480.601C580.938 480.601 581.558 480.386 582.088 479.957C582.618 479.527 582.911 478.99 582.969 478.345H584.849C584.813 479.011 584.584 479.645 584.161 480.247C583.739 480.848 583.173 481.328 582.464 481.686C581.762 482.044 581.017 482.223 580.229 482.223C578.647 482.223 577.386 481.697 576.448 480.644C575.517 479.584 575.052 478.138 575.052 476.304V475.971C575.052 474.84 575.259 473.833 575.675 472.953C576.09 472.072 576.685 471.388 577.458 470.901C578.239 470.414 579.159 470.17 580.219 470.17C581.522 470.17 582.604 470.561 583.463 471.341C584.329 472.122 584.791 473.135 584.849 474.381H582.969C582.911 473.629 582.625 473.014 582.109 472.534C581.601 472.047 580.971 471.803 580.219 471.803C579.209 471.803 578.425 472.168 577.866 472.899C577.315 473.622 577.039 474.671 577.039 476.046V476.422C577.039 477.762 577.315 478.793 577.866 479.516C578.418 480.239 579.205 480.601 580.229 480.601ZM589.242 482.008H587.255V465.508H589.242V482.008ZM599.608 482.008C599.494 481.779 599.401 481.371 599.329 480.784C598.405 481.743 597.302 482.223 596.021 482.223C594.875 482.223 593.933 481.901 593.195 481.256C592.465 480.605 592.1 479.781 592.1 478.786C592.1 477.575 592.558 476.637 593.475 475.971C594.398 475.298 595.695 474.961 597.363 474.961H599.297V474.048C599.297 473.354 599.089 472.802 598.674 472.394C598.258 471.979 597.646 471.771 596.837 471.771C596.128 471.771 595.534 471.95 595.054 472.308C594.574 472.666 594.334 473.099 594.334 473.608H592.336C592.336 473.028 592.54 472.469 592.948 471.932C593.364 471.388 593.922 470.958 594.624 470.643C595.333 470.328 596.11 470.17 596.955 470.17C598.294 470.17 599.343 470.507 600.103 471.18C600.862 471.846 601.256 472.766 601.284 473.941V479.291C601.284 480.358 601.42 481.206 601.692 481.836V482.008H599.608ZM596.311 480.494C596.934 480.494 597.524 480.333 598.083 480.01C598.642 479.688 599.046 479.269 599.297 478.753V476.369H597.739C595.304 476.369 594.087 477.081 594.087 478.506C594.087 479.129 594.295 479.616 594.71 479.967C595.125 480.318 595.659 480.494 596.311 480.494ZM606.559 482.008H604.571V470.385H606.559V482.008ZM604.41 467.302C604.41 466.98 604.507 466.708 604.7 466.486C604.901 466.264 605.194 466.153 605.581 466.153C605.968 466.153 606.261 466.264 606.462 466.486C606.662 466.708 606.763 466.98 606.763 467.302C606.763 467.625 606.662 467.893 606.462 468.108C606.261 468.323 605.968 468.43 605.581 468.43C605.194 468.43 604.901 468.323 604.7 468.108C604.507 467.893 604.41 467.625 604.41 467.302ZM611.618 470.385L611.672 471.674C612.524 470.672 613.674 470.17 615.12 470.17C616.746 470.17 617.852 470.793 618.439 472.04C618.826 471.481 619.327 471.03 619.943 470.686C620.566 470.342 621.3 470.17 622.146 470.17C624.695 470.17 625.991 471.52 626.034 474.22V482.008H624.047V474.338C624.047 473.508 623.857 472.888 623.478 472.48C623.098 472.065 622.461 471.857 621.565 471.857C620.828 471.857 620.215 472.079 619.729 472.523C619.242 472.96 618.959 473.551 618.88 474.295V482.008H616.882V474.392C616.882 472.702 616.055 471.857 614.4 471.857C613.097 471.857 612.205 472.412 611.726 473.522V482.008H609.738V470.385H611.618ZM631.373 477.604C631.387 476.752 631.484 476.079 631.663 475.584C631.842 475.09 632.207 474.542 632.759 473.941L634.166 472.491C634.768 471.81 635.068 471.08 635.068 470.299C635.068 469.547 634.871 468.96 634.478 468.538C634.084 468.108 633.511 467.893 632.759 467.893C632.028 467.893 631.441 468.086 630.997 468.473C630.553 468.86 630.331 469.379 630.331 470.031H628.344C628.358 468.871 628.77 467.936 629.579 467.227C630.396 466.511 631.455 466.153 632.759 466.153C634.112 466.153 635.165 466.518 635.917 467.249C636.676 467.972 637.056 468.967 637.056 470.235C637.056 471.488 636.476 472.723 635.315 473.941L634.145 475.101C633.622 475.681 633.36 476.515 633.36 477.604H631.373ZM631.287 481.009C631.287 480.687 631.384 480.418 631.577 480.204C631.778 479.982 632.071 479.871 632.458 479.871C632.845 479.871 633.138 479.982 633.339 480.204C633.539 480.418 633.64 480.687 633.64 481.009C633.64 481.332 633.539 481.6 633.339 481.815C633.138 482.023 632.845 482.126 632.458 482.126C632.071 482.126 631.778 482.023 631.577 481.815C631.384 481.6 631.287 481.332 631.287 481.009Z" fill="white"/>
<path d="M942 190L855 274.5L942 359L1029 274.5L942 190Z" fill="#6A45A2"/>
<path d="M924.447 265.045C924.254 266.7 923.642 267.978 922.61 268.88C921.586 269.776 920.222 270.223 918.518 270.223C916.67 270.223 915.188 269.561 914.07 268.236C912.96 266.911 912.405 265.139 912.405 262.918V261.415C912.405 259.961 912.663 258.682 913.179 257.58C913.701 256.477 914.439 255.632 915.392 255.044C916.344 254.45 917.447 254.153 918.7 254.153C920.362 254.153 921.694 254.618 922.696 255.549C923.699 256.473 924.283 257.755 924.447 259.395H922.374C922.195 258.149 921.805 257.247 921.203 256.688C920.609 256.129 919.774 255.85 918.7 255.85C917.382 255.85 916.348 256.337 915.596 257.311C914.851 258.285 914.479 259.671 914.479 261.468V262.983C914.479 264.68 914.833 266.03 915.542 267.033C916.251 268.035 917.243 268.537 918.518 268.537C919.663 268.537 920.541 268.279 921.149 267.763C921.765 267.24 922.174 266.334 922.374 265.045H924.447ZM929.12 270.008H927.133V253.508H929.12V270.008ZM939.486 270.008C939.372 269.779 939.279 269.371 939.207 268.784C938.283 269.743 937.18 270.223 935.898 270.223C934.753 270.223 933.811 269.901 933.073 269.256C932.343 268.605 931.978 267.781 931.978 266.786C931.978 265.575 932.436 264.637 933.353 263.971C934.276 263.298 935.573 262.961 937.241 262.961H939.175V262.048C939.175 261.354 938.967 260.802 938.552 260.394C938.136 259.979 937.524 259.771 936.715 259.771C936.006 259.771 935.411 259.95 934.932 260.308C934.452 260.666 934.212 261.099 934.212 261.608H932.214C932.214 261.028 932.418 260.469 932.826 259.932C933.242 259.388 933.8 258.958 934.502 258.643C935.211 258.328 935.988 258.17 936.833 258.17C938.172 258.17 939.221 258.507 939.98 259.18C940.74 259.846 941.133 260.766 941.162 261.941V267.291C941.162 268.358 941.298 269.206 941.57 269.836V270.008H939.486ZM936.188 268.494C936.812 268.494 937.402 268.333 937.961 268.01C938.52 267.688 938.924 267.269 939.175 266.753V264.369H937.617C935.182 264.369 933.965 265.081 933.965 266.506C933.965 267.129 934.173 267.616 934.588 267.967C935.003 268.318 935.537 268.494 936.188 268.494ZM946.437 270.008H944.449V258.385H946.437V270.008ZM944.288 255.302C944.288 254.98 944.385 254.708 944.578 254.486C944.779 254.264 945.072 254.153 945.459 254.153C945.846 254.153 946.139 254.264 946.34 254.486C946.54 254.708 946.641 254.98 946.641 255.302C946.641 255.625 946.54 255.893 946.34 256.108C946.139 256.323 945.846 256.43 945.459 256.43C945.072 256.43 944.779 256.323 944.578 256.108C944.385 255.893 944.288 255.625 944.288 255.302ZM951.496 258.385L951.55 259.674C952.402 258.672 953.551 258.17 954.998 258.17C956.624 258.17 957.73 258.793 958.317 260.04C958.704 259.481 959.205 259.03 959.821 258.686C960.444 258.342 961.178 258.17 962.023 258.17C964.573 258.17 965.869 259.52 965.912 262.22V270.008H963.925V262.338C963.925 261.508 963.735 260.888 963.355 260.48C962.976 260.065 962.339 259.857 961.443 259.857C960.706 259.857 960.093 260.079 959.606 260.523C959.119 260.96 958.837 261.551 958.758 262.295V270.008H956.76V262.392C956.76 260.702 955.933 259.857 954.278 259.857C952.975 259.857 952.083 260.412 951.604 261.522V270.008H949.616V258.385H951.496ZM912.577 289.326C912.577 291.095 912.173 292.52 911.363 293.601C910.554 294.682 909.458 295.223 908.076 295.223C906.665 295.223 905.555 294.776 904.746 293.88V299.477H902.759V283.385H904.574L904.671 284.674C905.48 283.672 906.604 283.17 908.044 283.17C909.44 283.17 910.543 283.697 911.353 284.75C912.169 285.802 912.577 287.267 912.577 289.143V289.326ZM910.59 289.1C910.59 287.79 910.311 286.755 909.752 285.996C909.193 285.236 908.427 284.857 907.453 284.857C906.25 284.857 905.348 285.39 904.746 286.458V292.011C905.34 293.071 906.25 293.601 907.475 293.601C908.427 293.601 909.183 293.225 909.741 292.473C910.307 291.714 910.59 290.59 910.59 289.1ZM922.288 295.008C922.174 294.779 922.08 294.371 922.009 293.784C921.085 294.743 919.982 295.223 918.7 295.223C917.554 295.223 916.613 294.901 915.875 294.256C915.145 293.605 914.779 292.781 914.779 291.786C914.779 290.575 915.238 289.637 916.154 288.971C917.078 288.298 918.374 287.961 920.043 287.961H921.977V287.048C921.977 286.354 921.769 285.802 921.354 285.394C920.938 284.979 920.326 284.771 919.517 284.771C918.808 284.771 918.213 284.95 917.733 285.308C917.254 285.666 917.014 286.099 917.014 286.608H915.016C915.016 286.028 915.22 285.469 915.628 284.932C916.043 284.388 916.602 283.958 917.304 283.643C918.013 283.328 918.79 283.17 919.635 283.17C920.974 283.17 922.023 283.507 922.782 284.18C923.541 284.846 923.935 285.766 923.964 286.941V292.291C923.964 293.358 924.1 294.206 924.372 294.836V295.008H922.288ZM918.99 293.494C919.613 293.494 920.204 293.333 920.763 293.01C921.321 292.688 921.726 292.269 921.977 291.753V289.369H920.419C917.984 289.369 916.767 290.081 916.767 291.506C916.767 292.129 916.974 292.616 917.39 292.967C917.805 293.318 918.339 293.494 918.99 293.494ZM933.847 291.925C933.847 291.388 933.643 290.973 933.234 290.679C932.833 290.378 932.128 290.121 931.118 289.906C930.116 289.691 929.317 289.433 928.723 289.132C928.135 288.832 927.699 288.473 927.412 288.058C927.133 287.643 926.993 287.149 926.993 286.576C926.993 285.623 927.394 284.818 928.196 284.159C929.006 283.5 930.037 283.17 931.29 283.17C932.608 283.17 933.675 283.511 934.491 284.191C935.315 284.871 935.727 285.741 935.727 286.801H933.729C933.729 286.257 933.496 285.788 933.03 285.394C932.572 285 931.992 284.803 931.29 284.803C930.567 284.803 930.001 284.961 929.593 285.276C929.185 285.591 928.98 286.003 928.98 286.511C928.98 286.991 929.17 287.353 929.55 287.596C929.929 287.84 930.613 288.072 931.602 288.294C932.597 288.516 933.403 288.781 934.019 289.089C934.634 289.397 935.089 289.77 935.383 290.207C935.684 290.636 935.834 291.163 935.834 291.786C935.834 292.824 935.419 293.658 934.588 294.289C933.757 294.912 932.679 295.223 931.354 295.223C930.424 295.223 929.6 295.058 928.884 294.729C928.168 294.4 927.605 293.941 927.197 293.354C926.796 292.76 926.596 292.119 926.596 291.431H928.583C928.619 292.097 928.884 292.627 929.378 293.021C929.879 293.408 930.538 293.601 931.354 293.601C932.106 293.601 932.708 293.451 933.159 293.15C933.618 292.842 933.847 292.434 933.847 291.925ZM945.19 291.925C945.19 291.388 944.986 290.973 944.578 290.679C944.177 290.378 943.472 290.121 942.462 289.906C941.459 289.691 940.661 289.433 940.066 289.132C939.479 288.832 939.042 288.473 938.756 288.058C938.477 287.643 938.337 287.149 938.337 286.576C938.337 285.623 938.738 284.818 939.54 284.159C940.349 283.5 941.381 283.17 942.634 283.17C943.951 283.17 945.019 283.511 945.835 284.191C946.659 284.871 947.07 285.741 947.07 286.801H945.072C945.072 286.257 944.84 285.788 944.374 285.394C943.916 285 943.336 284.803 942.634 284.803C941.91 284.803 941.345 284.961 940.937 285.276C940.528 285.591 940.324 286.003 940.324 286.511C940.324 286.991 940.514 287.353 940.894 287.596C941.273 287.84 941.957 288.072 942.945 288.294C943.941 288.516 944.746 288.781 945.362 289.089C945.978 289.397 946.433 289.77 946.727 290.207C947.027 290.636 947.178 291.163 947.178 291.786C947.178 292.824 946.762 293.658 945.932 294.289C945.101 294.912 944.023 295.223 942.698 295.223C941.767 295.223 940.944 295.058 940.228 294.729C939.511 294.4 938.949 293.941 938.541 293.354C938.14 292.76 937.939 292.119 937.939 291.431H939.927C939.963 292.097 940.228 292.627 940.722 293.021C941.223 293.408 941.882 293.601 942.698 293.601C943.45 293.601 944.052 293.451 944.503 293.15C944.961 292.842 945.19 292.434 945.19 291.925ZM954.59 295.223C953.014 295.223 951.732 294.708 950.744 293.676C949.756 292.638 949.262 291.252 949.262 289.519V289.154C949.262 288.001 949.48 286.973 949.917 286.071C950.361 285.161 950.977 284.452 951.765 283.944C952.56 283.428 953.419 283.17 954.343 283.17C955.854 283.17 957.028 283.668 957.866 284.664C958.704 285.659 959.123 287.084 959.123 288.939V289.766H951.249C951.278 290.912 951.611 291.839 952.248 292.548C952.893 293.25 953.709 293.601 954.697 293.601C955.399 293.601 955.993 293.458 956.48 293.171C956.967 292.885 957.394 292.505 957.759 292.033L958.973 292.978C957.999 294.475 956.538 295.223 954.59 295.223ZM954.343 284.803C953.541 284.803 952.868 285.097 952.323 285.684C951.779 286.264 951.442 287.081 951.313 288.133H957.136V287.983C957.078 286.973 956.806 286.193 956.319 285.641C955.832 285.083 955.174 284.803 954.343 284.803ZM960.949 289.1C960.949 287.317 961.372 285.885 962.217 284.803C963.062 283.715 964.168 283.17 965.536 283.17C966.897 283.17 967.975 283.636 968.77 284.567V278.508H970.757V295.008H968.931L968.834 293.762C968.039 294.736 966.933 295.223 965.515 295.223C964.168 295.223 963.069 294.672 962.217 293.569C961.372 292.466 960.949 291.027 960.949 289.25V289.1ZM962.937 289.326C962.937 290.643 963.209 291.675 963.753 292.419C964.297 293.164 965.049 293.537 966.009 293.537C967.269 293.537 968.189 292.971 968.77 291.839V286.5C968.175 285.405 967.262 284.857 966.03 284.857C965.056 284.857 964.297 285.233 963.753 285.985C963.209 286.737 962.937 287.85 962.937 289.326ZM976.182 290.604C976.196 289.752 976.293 289.079 976.472 288.584C976.651 288.09 977.016 287.542 977.567 286.941L978.975 285.491C979.576 284.81 979.877 284.08 979.877 283.299C979.877 282.547 979.68 281.96 979.286 281.538C978.892 281.108 978.319 280.893 977.567 280.893C976.837 280.893 976.25 281.086 975.806 281.473C975.362 281.86 975.14 282.379 975.14 283.031H973.152C973.167 281.871 973.578 280.936 974.388 280.227C975.204 279.511 976.264 279.153 977.567 279.153C978.921 279.153 979.974 279.518 980.726 280.249C981.485 280.972 981.864 281.967 981.864 283.235C981.864 284.488 981.284 285.723 980.124 286.941L978.953 288.101C978.43 288.681 978.169 289.515 978.169 290.604H976.182ZM976.096 294.009C976.096 293.687 976.192 293.418 976.386 293.204C976.586 292.982 976.88 292.871 977.267 292.871C977.653 292.871 977.947 292.982 978.147 293.204C978.348 293.418 978.448 293.687 978.448 294.009C978.448 294.332 978.348 294.6 978.147 294.815C977.947 295.023 977.653 295.126 977.267 295.126C976.88 295.126 976.586 295.023 976.386 294.815C976.192 294.6 976.096 294.332 976.096 294.009Z" fill="white"/>
<rect x="1405" y="415" width="197" height="80" fill="#56BD66"/>
<path d="M1441.18 456.395C1439.25 455.84 1437.84 455.16 1436.96 454.355C1436.09 453.543 1435.65 452.543 1435.65 451.355C1435.65 450.012 1436.18 448.902 1437.25 448.027C1438.33 447.145 1439.73 446.703 1441.45 446.703C1442.62 446.703 1443.66 446.93 1444.58 447.383C1445.5 447.836 1446.21 448.461 1446.71 449.258C1447.22 450.055 1447.47 450.926 1447.47 451.871H1445.21C1445.21 450.84 1444.88 450.031 1444.23 449.445C1443.57 448.852 1442.64 448.555 1441.45 448.555C1440.34 448.555 1439.47 448.801 1438.85 449.293C1438.23 449.777 1437.92 450.453 1437.92 451.32C1437.92 452.016 1438.21 452.605 1438.8 453.09C1439.39 453.566 1440.4 454.004 1441.81 454.402C1443.23 454.801 1444.34 455.242 1445.14 455.727C1445.95 456.203 1446.54 456.762 1446.92 457.402C1447.31 458.043 1447.51 458.797 1447.51 459.664C1447.51 461.047 1446.97 462.156 1445.89 462.992C1444.81 463.82 1443.37 464.234 1441.57 464.234C1440.39 464.234 1439.3 464.012 1438.29 463.566C1437.27 463.113 1436.48 462.496 1435.93 461.715C1435.38 460.934 1435.11 460.047 1435.11 459.055H1437.37C1437.37 460.086 1437.75 460.902 1438.51 461.504C1439.27 462.098 1440.29 462.395 1441.57 462.395C1442.75 462.395 1443.66 462.152 1444.3 461.668C1444.93 461.184 1445.25 460.523 1445.25 459.688C1445.25 458.852 1444.95 458.207 1444.37 457.754C1443.78 457.293 1442.72 456.84 1441.18 456.395ZM1457.89 464C1457.77 463.75 1457.66 463.305 1457.59 462.664C1456.58 463.711 1455.38 464.234 1453.98 464.234C1452.73 464.234 1451.7 463.883 1450.89 463.18C1450.1 462.469 1449.7 461.57 1449.7 460.484C1449.7 459.164 1450.2 458.141 1451.2 457.414C1452.21 456.68 1453.62 456.312 1455.44 456.312H1457.55V455.316C1457.55 454.559 1457.32 453.957 1456.87 453.512C1456.42 453.059 1455.75 452.832 1454.87 452.832C1454.09 452.832 1453.45 453.027 1452.92 453.418C1452.4 453.809 1452.14 454.281 1452.14 454.836H1449.96C1449.96 454.203 1450.18 453.594 1450.62 453.008C1451.08 452.414 1451.69 451.945 1452.45 451.602C1453.23 451.258 1454.07 451.086 1455 451.086C1456.46 451.086 1457.6 451.453 1458.43 452.188C1459.26 452.914 1459.69 453.918 1459.72 455.199V461.035C1459.72 462.199 1459.87 463.125 1460.16 463.812V464H1457.89ZM1454.29 462.348C1454.97 462.348 1455.62 462.172 1456.23 461.82C1456.84 461.469 1457.28 461.012 1457.55 460.449V457.848H1455.85C1453.2 457.848 1451.87 458.625 1451.87 460.18C1451.87 460.859 1452.09 461.391 1452.55 461.773C1453 462.156 1453.58 462.348 1454.29 462.348ZM1464.18 464V452.996H1462.18V451.32H1464.18V450.02C1464.18 448.66 1464.55 447.609 1465.27 446.867C1466 446.125 1467.03 445.754 1468.36 445.754C1468.86 445.754 1469.35 445.82 1469.84 445.953L1469.73 447.711C1469.36 447.641 1468.97 447.605 1468.55 447.605C1467.85 447.605 1467.31 447.812 1466.93 448.227C1466.54 448.633 1466.35 449.219 1466.35 449.984V451.32H1469.06V452.996H1466.35V464H1464.18ZM1476.44 464.234C1474.72 464.234 1473.32 463.672 1472.25 462.547C1471.17 461.414 1470.63 459.902 1470.63 458.012V457.613C1470.63 456.355 1470.87 455.234 1471.34 454.25C1471.83 453.258 1472.5 452.484 1473.36 451.93C1474.23 451.367 1475.16 451.086 1476.17 451.086C1477.82 451.086 1479.1 451.629 1480.02 452.715C1480.93 453.801 1481.39 455.355 1481.39 457.379V458.281H1472.8C1472.83 459.531 1473.19 460.543 1473.89 461.316C1474.59 462.082 1475.48 462.465 1476.56 462.465C1477.32 462.465 1477.97 462.309 1478.5 461.996C1479.04 461.684 1479.5 461.27 1479.9 460.754L1481.22 461.785C1480.16 463.418 1478.57 464.234 1476.44 464.234ZM1476.17 452.867C1475.3 452.867 1474.56 453.188 1473.97 453.828C1473.38 454.461 1473.01 455.352 1472.87 456.5H1479.22V456.336C1479.16 455.234 1478.86 454.383 1478.33 453.781C1477.8 453.172 1477.08 452.867 1476.17 452.867ZM1494.95 462.465C1495.72 462.465 1496.39 462.23 1496.97 461.762C1497.55 461.293 1497.87 460.707 1497.93 460.004H1499.98C1499.95 460.73 1499.7 461.422 1499.23 462.078C1498.77 462.734 1498.16 463.258 1497.38 463.648C1496.62 464.039 1495.8 464.234 1494.95 464.234C1493.22 464.234 1491.84 463.66 1490.82 462.512C1489.8 461.355 1489.3 459.777 1489.3 457.777V457.414C1489.3 456.18 1489.52 455.082 1489.98 454.121C1490.43 453.16 1491.08 452.414 1491.92 451.883C1492.77 451.352 1493.78 451.086 1494.93 451.086C1496.36 451.086 1497.54 451.512 1498.47 452.363C1499.42 453.215 1499.92 454.32 1499.98 455.68H1497.93C1497.87 454.859 1497.56 454.188 1497 453.664C1496.44 453.133 1495.75 452.867 1494.93 452.867C1493.83 452.867 1492.98 453.266 1492.37 454.062C1491.77 454.852 1491.46 455.996 1491.46 457.496V457.906C1491.46 459.367 1491.77 460.492 1492.37 461.281C1492.97 462.07 1493.83 462.465 1494.95 462.465ZM1504.78 464H1502.61V446H1504.78V464ZM1516.09 464C1515.96 463.75 1515.86 463.305 1515.78 462.664C1514.77 463.711 1513.57 464.234 1512.17 464.234C1510.92 464.234 1509.89 463.883 1509.09 463.18C1508.29 462.469 1507.89 461.57 1507.89 460.484C1507.89 459.164 1508.39 458.141 1509.39 457.414C1510.4 456.68 1511.82 456.312 1513.64 456.312H1515.75V455.316C1515.75 454.559 1515.52 453.957 1515.07 453.512C1514.61 453.059 1513.95 452.832 1513.06 452.832C1512.29 452.832 1511.64 453.027 1511.12 453.418C1510.59 453.809 1510.33 454.281 1510.33 454.836H1508.15C1508.15 454.203 1508.38 453.594 1508.82 453.008C1509.27 452.414 1509.88 451.945 1510.65 451.602C1511.42 451.258 1512.27 451.086 1513.19 451.086C1514.65 451.086 1515.8 451.453 1516.62 452.188C1517.45 452.914 1517.88 453.918 1517.91 455.199V461.035C1517.91 462.199 1518.06 463.125 1518.36 463.812V464H1516.09ZM1512.49 462.348C1513.17 462.348 1513.81 462.172 1514.42 461.82C1515.03 461.469 1515.47 461.012 1515.75 460.449V457.848H1514.05C1511.39 457.848 1510.06 458.625 1510.06 460.18C1510.06 460.859 1510.29 461.391 1510.74 461.773C1511.2 462.156 1511.78 462.348 1512.49 462.348ZM1523.67 464H1521.5V451.32H1523.67V464ZM1521.32 447.957C1521.32 447.605 1521.43 447.309 1521.64 447.066C1521.86 446.824 1522.18 446.703 1522.6 446.703C1523.02 446.703 1523.34 446.824 1523.56 447.066C1523.78 447.309 1523.89 447.605 1523.89 447.957C1523.89 448.309 1523.78 448.602 1523.56 448.836C1523.34 449.07 1523.02 449.188 1522.6 449.188C1522.18 449.188 1521.86 449.07 1521.64 448.836C1521.43 448.602 1521.32 448.309 1521.32 447.957ZM1529.19 451.32L1529.25 452.727C1530.18 451.633 1531.43 451.086 1533.01 451.086C1534.78 451.086 1535.99 451.766 1536.63 453.125C1537.05 452.516 1537.6 452.023 1538.27 451.648C1538.95 451.273 1539.75 451.086 1540.67 451.086C1543.45 451.086 1544.87 452.559 1544.91 455.504V464H1542.75V455.633C1542.75 454.727 1542.54 454.051 1542.12 453.605C1541.71 453.152 1541.02 452.926 1540.04 452.926C1539.23 452.926 1538.57 453.168 1538.04 453.652C1537.5 454.129 1537.2 454.773 1537.11 455.586V464H1534.93V455.691C1534.93 453.848 1534.03 452.926 1532.22 452.926C1530.8 452.926 1529.83 453.531 1529.3 454.742V464H1527.14V451.32H1529.19ZM1553.46 464.234C1551.74 464.234 1550.34 463.672 1549.26 462.547C1548.18 461.414 1547.64 459.902 1547.64 458.012V457.613C1547.64 456.355 1547.88 455.234 1548.36 454.25C1548.84 453.258 1549.52 452.484 1550.38 451.93C1551.24 451.367 1552.18 451.086 1553.19 451.086C1554.84 451.086 1556.12 451.629 1557.03 452.715C1557.95 453.801 1558.4 455.355 1558.4 457.379V458.281H1549.81C1549.84 459.531 1550.21 460.543 1550.9 461.316C1551.61 462.082 1552.5 462.465 1553.57 462.465C1554.34 462.465 1554.99 462.309 1555.52 461.996C1556.05 461.684 1556.52 461.27 1556.91 460.754L1558.24 461.785C1557.18 463.418 1555.58 464.234 1553.46 464.234ZM1553.19 452.867C1552.31 452.867 1551.58 453.188 1550.98 453.828C1550.39 454.461 1550.02 455.352 1549.88 456.5H1556.23V456.336C1556.17 455.234 1555.88 454.383 1555.34 453.781C1554.81 453.172 1554.09 452.867 1553.19 452.867ZM1560.39 457.555C1560.39 455.609 1560.86 454.047 1561.78 452.867C1562.7 451.68 1563.91 451.086 1565.4 451.086C1566.88 451.086 1568.06 451.594 1568.93 452.609V446H1571.09V464H1569.1L1569 462.641C1568.13 463.703 1566.92 464.234 1565.38 464.234C1563.91 464.234 1562.71 463.633 1561.78 462.43C1560.86 461.227 1560.39 459.656 1560.39 457.719V457.555ZM1562.56 457.801C1562.56 459.238 1562.86 460.363 1563.45 461.176C1564.05 461.988 1564.87 462.395 1565.91 462.395C1567.29 462.395 1568.29 461.777 1568.93 460.543V454.719C1568.28 453.523 1567.28 452.926 1565.94 452.926C1564.88 452.926 1564.05 453.336 1563.45 454.156C1562.86 454.977 1562.56 456.191 1562.56 457.801Z" fill="white"/>
</svg>
